<svg xmlns="http://www.w3.org/2000/svg" version="1.1" xmlns:xlink="http://www.w3.org/1999/xlink" xmlns:svgjs="http://svgjs.dev/svgjs" width="1603" height="560" preserveAspectRatio="none" viewBox="0 0 1603 560"><g mask="url(&quot;#SvgjsMask1602&quot;)" fill="none"><rect width="1603" height="560" x="0" y="0" fill="rgba(22, 27, 47, 1)"></rect><path d="M-99.64 402.84L-99.64 402.84" stroke="#132e65" stroke-width="1.5"></path><path d="M-99.64 402.84L-43.19 540.68" stroke="#132e65" stroke-width="1.5"></path><path d="M-99.64 402.84L53.12 380.78" stroke="#132e65" stroke-width="1.5"></path><path d="M-99.64 402.84L-70.13 671.19" stroke="#132e65" stroke-width="1.5"></path><path d="M-99.64 402.84L62.28 671.98" stroke="#132e65" stroke-width="1.5"></path><path d="M-43.19 540.68L-43.19 540.68" stroke="#132e65" stroke-width="1.5"></path><path d="M-43.19 540.68L-70.13 671.19" stroke="#132e65" stroke-width="1.5"></path><path d="M-70.13 671.19L-70.13 671.19" stroke="#132e65" stroke-width="1.5"></path><path d="M-70.13 671.19L62.28 671.98" stroke="#132e65" stroke-width="1.5"></path><path d="M-70.13 671.19L202.54 703.21" stroke="#132e65" stroke-width="1.5"></path><path d="M53.12 380.78L53.12 380.78" stroke="#132e65" stroke-width="1.5"></path><path d="M53.12 380.78L233.83 380.54" stroke="#132e65" stroke-width="1.5"></path><path d="M53.12 380.78L-43.19 540.68" stroke="#132e65" stroke-width="1.5"></path><path d="M53.12 380.78L225 516.54" stroke="#132e65" stroke-width="1.5"></path><path d="M53.12 380.78L62.28 671.98" stroke="#132e65" stroke-width="1.5"></path><path d="M62.28 671.98L62.28 671.98" stroke="#132e65" stroke-width="1.5"></path><path d="M62.28 671.98L202.54 703.21" stroke="#132e65" stroke-width="1.5"></path><path d="M62.28 671.98L-43.19 540.68" stroke="#132e65" stroke-width="1.5"></path><path d="M62.28 671.98L225 516.54" stroke="#132e65" stroke-width="1.5"></path><path d="M233.83 380.54L233.83 380.54" stroke="#132e65" stroke-width="1.5"></path><path d="M233.83 380.54L354.01 411.68" stroke="#132e65" stroke-width="1.5"></path><path d="M225 516.54L225 516.54" stroke="#132e65" stroke-width="1.5"></path><path d="M225 516.54L233.83 380.54" stroke="#132e65" stroke-width="1.5"></path><path d="M225 516.54L376.09 533.28" stroke="#132e65" stroke-width="1.5"></path><path d="M225 516.54L354.01 411.68" stroke="#132e65" stroke-width="1.5"></path><path d="M225 516.54L202.54 703.21" stroke="#132e65" stroke-width="1.5"></path><path d="M202.54 703.21L202.54 703.21" stroke="#132e65" stroke-width="1.5"></path><path d="M202.54 703.21L411.68 683.1" stroke="#132e65" stroke-width="1.5"></path><path d="M354.01 411.68L354.01 411.68" stroke="#132e65" stroke-width="1.5"></path><path d="M354.01 411.68L376.09 533.28" stroke="#132e65" stroke-width="1.5"></path><path d="M376.09 533.28L376.09 533.28" stroke="#132e65" stroke-width="1.5"></path><path d="M376.09 533.28L506.34 524.24" stroke="#132e65" stroke-width="1.5"></path><path d="M411.68 683.1L411.68 683.1" stroke="#132e65" stroke-width="1.5"></path><path d="M411.68 683.1L544.43 666.94" stroke="#132e65" stroke-width="1.5"></path><path d="M411.68 683.1L376.09 533.28" stroke="#132e65" stroke-width="1.5"></path><path d="M411.68 683.1L506.34 524.24" stroke="#132e65" stroke-width="1.5"></path><path d="M411.68 683.1L225 516.54" stroke="#132e65" stroke-width="1.5"></path><path d="M558.65 357.96L558.65 357.96" stroke="#132e65" stroke-width="1.5"></path><path d="M558.65 357.96L655.68 399.51" stroke="#132e65" stroke-width="1.5"></path><path d="M558.65 357.96L506.34 524.24" stroke="#132e65" stroke-width="1.5"></path><path d="M558.65 357.96L704.99 248.44" stroke="#132e65" stroke-width="1.5"></path><path d="M558.65 357.96L354.01 411.68" stroke="#132e65" stroke-width="1.5"></path><path d="M558.65 357.96L687.36 535.61" stroke="#132e65" stroke-width="1.5"></path><path d="M506.34 524.24L506.34 524.24" stroke="#132e65" stroke-width="1.5"></path><path d="M506.34 524.24L544.43 666.94" stroke="#132e65" stroke-width="1.5"></path><path d="M506.34 524.24L687.36 535.61" stroke="#132e65" stroke-width="1.5"></path><path d="M506.34 524.24L354.01 411.68" stroke="#132e65" stroke-width="1.5"></path><path d="M544.43 666.94L544.43 666.94" stroke="#132e65" stroke-width="1.5"></path><path d="M544.43 666.94L668.91 692.75" stroke="#132e65" stroke-width="1.5"></path><path d="M704.99 248.44L704.99 248.44" stroke="#132e65" stroke-width="1.5"></path><path d="M704.99 248.44L851.52 227.71" stroke="#132e65" stroke-width="1.5"></path><path d="M704.99 248.44L822.42 338.97" stroke="#132e65" stroke-width="1.5"></path><path d="M704.99 248.44L655.68 399.51" stroke="#132e65" stroke-width="1.5"></path><path d="M704.99 248.44L943.52 191.1" stroke="#132e65" stroke-width="1.5"></path><path d="M655.68 399.51L655.68 399.51" stroke="#132e65" stroke-width="1.5"></path><path d="M655.68 399.51L687.36 535.61" stroke="#132e65" stroke-width="1.5"></path><path d="M687.36 535.61L687.36 535.61" stroke="#132e65" stroke-width="1.5"></path><path d="M687.36 535.61L668.91 692.75" stroke="#132e65" stroke-width="1.5"></path><path d="M668.91 692.75L668.91 692.75" stroke="#132e65" stroke-width="1.5"></path><path d="M668.91 692.75L835.72 673.21" stroke="#132e65" stroke-width="1.5"></path><path d="M851.52 227.71L851.52 227.71" stroke="#132e65" stroke-width="1.5"></path><path d="M851.52 227.71L943.52 191.1" stroke="#132e65" stroke-width="1.5"></path><path d="M851.52 227.71L822.42 338.97" stroke="#132e65" stroke-width="1.5"></path><path d="M851.52 227.71L976.81 348.73" stroke="#132e65" stroke-width="1.5"></path><path d="M822.42 338.97L822.42 338.97" stroke="#132e65" stroke-width="1.5"></path><path d="M835.72 673.21L835.72 673.21" stroke="#132e65" stroke-width="1.5"></path><path d="M835.72 673.21L1012.07 665.51" stroke="#132e65" stroke-width="1.5"></path><path d="M835.72 673.21L995.15 551.25" stroke="#132e65" stroke-width="1.5"></path><path d="M835.72 673.21L687.36 535.61" stroke="#132e65" stroke-width="1.5"></path><path d="M998.93 -106.5L998.93 -106.5" stroke="#132e65" stroke-width="1.5"></path><path d="M998.93 -106.5L1111.52 -53.17" stroke="#132e65" stroke-width="1.5"></path><path d="M998.93 -106.5L965.76 75.05" stroke="#132e65" stroke-width="1.5"></path><path d="M998.93 -106.5L1140.41 78.91" stroke="#132e65" stroke-width="1.5"></path><path d="M998.93 -106.5L943.52 191.1" stroke="#132e65" stroke-width="1.5"></path><path d="M998.93 -106.5L1308.53 -68.12" stroke="#132e65" stroke-width="1.5"></path><path d="M965.76 75.05L965.76 75.05" stroke="#132e65" stroke-width="1.5"></path><path d="M965.76 75.05L943.52 191.1" stroke="#132e65" stroke-width="1.5"></path><path d="M965.76 75.05L1140.41 78.91" stroke="#132e65" stroke-width="1.5"></path><path d="M965.76 75.05L851.52 227.71" stroke="#132e65" stroke-width="1.5"></path><path d="M965.76 75.05L1111.52 -53.17" stroke="#132e65" stroke-width="1.5"></path><path d="M943.52 191.1L943.52 191.1" stroke="#132e65" stroke-width="1.5"></path><path d="M943.52 191.1L976.81 348.73" stroke="#132e65" stroke-width="1.5"></path><path d="M976.81 348.73L976.81 348.73" stroke="#132e65" stroke-width="1.5"></path><path d="M976.81 348.73L822.42 338.97" stroke="#132e65" stroke-width="1.5"></path><path d="M976.81 348.73L1140.89 406.82" stroke="#132e65" stroke-width="1.5"></path><path d="M995.15 551.25L995.15 551.25" stroke="#132e65" stroke-width="1.5"></path><path d="M995.15 551.25L1012.07 665.51" stroke="#132e65" stroke-width="1.5"></path><path d="M995.15 551.25L1153.05 508.28" stroke="#132e65" stroke-width="1.5"></path><path d="M995.15 551.25L976.81 348.73" stroke="#132e65" stroke-width="1.5"></path><path d="M995.15 551.25L1140.89 406.82" stroke="#132e65" stroke-width="1.5"></path><path d="M1012.07 665.51L1012.07 665.51" stroke="#132e65" stroke-width="1.5"></path><path d="M1012.07 665.51L1158.3 701.17" stroke="#132e65" stroke-width="1.5"></path><path d="M1111.52 -53.17L1111.52 -53.17" stroke="#132e65" stroke-width="1.5"></path><path d="M1111.52 -53.17L1140.41 78.91" stroke="#132e65" stroke-width="1.5"></path><path d="M1111.52 -53.17L1308.53 -68.12" stroke="#132e65" stroke-width="1.5"></path><path d="M1111.52 -53.17L1296.69 68.26" stroke="#132e65" stroke-width="1.5"></path><path d="M1111.52 -53.17L1118.64 211.98" stroke="#132e65" stroke-width="1.5"></path><path d="M1140.41 78.91L1140.41 78.91" stroke="#132e65" stroke-width="1.5"></path><path d="M1140.41 78.91L1118.64 211.98" stroke="#132e65" stroke-width="1.5"></path><path d="M1118.64 211.98L1118.64 211.98" stroke="#132e65" stroke-width="1.5"></path><path d="M1118.64 211.98L1288.35 203.73" stroke="#132e65" stroke-width="1.5"></path><path d="M1140.89 406.82L1140.89 406.82" stroke="#132e65" stroke-width="1.5"></path><path d="M1140.89 406.82L1153.05 508.28" stroke="#132e65" stroke-width="1.5"></path><path d="M1140.89 406.82L1255.17 503.65" stroke="#132e65" stroke-width="1.5"></path><path d="M1140.89 406.82L1296.17 372.93" stroke="#132e65" stroke-width="1.5"></path><path d="M1153.05 508.28L1153.05 508.28" stroke="#132e65" stroke-width="1.5"></path><path d="M1153.05 508.28L1255.17 503.65" stroke="#132e65" stroke-width="1.5"></path><path d="M1153.05 508.28L1158.3 701.17" stroke="#132e65" stroke-width="1.5"></path><path d="M1158.3 701.17L1158.3 701.17" stroke="#132e65" stroke-width="1.5"></path><path d="M1158.3 701.17L1277.85 692.34" stroke="#132e65" stroke-width="1.5"></path><path d="M1158.3 701.17L1255.17 503.65" stroke="#132e65" stroke-width="1.5"></path><path d="M1308.53 -68.12L1308.53 -68.12" stroke="#132e65" stroke-width="1.5"></path><path d="M1308.53 -68.12L1432.05 -101.8" stroke="#132e65" stroke-width="1.5"></path><path d="M1308.53 -68.12L1296.69 68.26" stroke="#132e65" stroke-width="1.5"></path><path d="M1308.53 -68.12L1408.69 63.57" stroke="#132e65" stroke-width="1.5"></path><path d="M1296.69 68.26L1296.69 68.26" stroke="#132e65" stroke-width="1.5"></path><path d="M1296.69 68.26L1408.69 63.57" stroke="#132e65" stroke-width="1.5"></path><path d="M1296.69 68.26L1288.35 203.73" stroke="#132e65" stroke-width="1.5"></path><path d="M1296.69 68.26L1391.32 188.88" stroke="#132e65" stroke-width="1.5"></path><path d="M1296.69 68.26L1140.41 78.91" stroke="#132e65" stroke-width="1.5"></path><path d="M1296.69 68.26L1432.05 -101.8" stroke="#132e65" stroke-width="1.5"></path><path d="M1288.35 203.73L1288.35 203.73" stroke="#132e65" stroke-width="1.5"></path><path d="M1288.35 203.73L1391.32 188.88" stroke="#132e65" stroke-width="1.5"></path><path d="M1288.35 203.73L1296.17 372.93" stroke="#132e65" stroke-width="1.5"></path><path d="M1296.17 372.93L1296.17 372.93" stroke="#132e65" stroke-width="1.5"></path><path d="M1296.17 372.93L1432.63 377.8" stroke="#132e65" stroke-width="1.5"></path><path d="M1296.17 372.93L1255.17 503.65" stroke="#132e65" stroke-width="1.5"></path><path d="M1296.17 372.93L1447.41 496.35" stroke="#132e65" stroke-width="1.5"></path><path d="M1296.17 372.93L1153.05 508.28" stroke="#132e65" stroke-width="1.5"></path><path d="M1255.17 503.65L1255.17 503.65" stroke="#132e65" stroke-width="1.5"></path><path d="M1255.17 503.65L1277.85 692.34" stroke="#132e65" stroke-width="1.5"></path><path d="M1255.17 503.65L1447.41 496.35" stroke="#132e65" stroke-width="1.5"></path><path d="M1277.85 692.34L1277.85 692.34" stroke="#132e65" stroke-width="1.5"></path><path d="M1277.85 692.34L1439.2 655.31" stroke="#132e65" stroke-width="1.5"></path><path d="M1277.85 692.34L1153.05 508.28" stroke="#132e65" stroke-width="1.5"></path><path d="M1432.05 -101.8L1432.05 -101.8" stroke="#132e65" stroke-width="1.5"></path><path d="M1432.05 -101.8L1541.37 -39.01" stroke="#132e65" stroke-width="1.5"></path><path d="M1432.05 -101.8L1408.69 63.57" stroke="#132e65" stroke-width="1.5"></path><path d="M1432.05 -101.8L1543.4 62.84" stroke="#132e65" stroke-width="1.5"></path><path d="M1408.69 63.57L1408.69 63.57" stroke="#132e65" stroke-width="1.5"></path><path d="M1408.69 63.57L1391.32 188.88" stroke="#132e65" stroke-width="1.5"></path><path d="M1391.32 188.88L1391.32 188.88" stroke="#132e65" stroke-width="1.5"></path><path d="M1432.63 377.8L1432.63 377.8" stroke="#132e65" stroke-width="1.5"></path><path d="M1432.63 377.8L1447.41 496.35" stroke="#132e65" stroke-width="1.5"></path><path d="M1432.63 377.8L1598.91 396.86" stroke="#132e65" stroke-width="1.5"></path><path d="M1432.63 377.8L1391.32 188.88" stroke="#132e65" stroke-width="1.5"></path><path d="M1447.41 496.35L1447.41 496.35" stroke="#132e65" stroke-width="1.5"></path><path d="M1447.41 496.35L1563 529.52" stroke="#132e65" stroke-width="1.5"></path><path d="M1447.41 496.35L1439.2 655.31" stroke="#132e65" stroke-width="1.5"></path><path d="M1439.2 655.31L1439.2 655.31" stroke="#132e65" stroke-width="1.5"></path><path d="M1439.2 655.31L1538.89 665.43" stroke="#132e65" stroke-width="1.5"></path><path d="M1439.2 655.31L1563 529.52" stroke="#132e65" stroke-width="1.5"></path><path d="M1541.37 -39.01L1541.37 -39.01" stroke="#132e65" stroke-width="1.5"></path><path d="M1541.37 -39.01L1543.4 62.84" stroke="#132e65" stroke-width="1.5"></path><path d="M1541.37 -39.01L1689.48 -53.13" stroke="#132e65" stroke-width="1.5"></path><path d="M1541.37 -39.01L1408.69 63.57" stroke="#132e65" stroke-width="1.5"></path><path d="M1541.37 -39.01L1308.53 -68.12" stroke="#132e65" stroke-width="1.5"></path><path d="M1543.4 62.84L1543.4 62.84" stroke="#132e65" stroke-width="1.5"></path><path d="M1589.61 234.21L1589.61 234.21" stroke="#132e65" stroke-width="1.5"></path><path d="M1589.61 234.21L1598.91 396.86" stroke="#132e65" stroke-width="1.5"></path><path d="M1589.61 234.21L1543.4 62.84" stroke="#132e65" stroke-width="1.5"></path><path d="M1589.61 234.21L1391.32 188.88" stroke="#132e65" stroke-width="1.5"></path><path d="M1589.61 234.21L1746.18 369.24" stroke="#132e65" stroke-width="1.5"></path><path d="M1589.61 234.21L1432.63 377.8" stroke="#132e65" stroke-width="1.5"></path><path d="M1598.91 396.86L1598.91 396.86" stroke="#132e65" stroke-width="1.5"></path><path d="M1598.91 396.86L1563 529.52" stroke="#132e65" stroke-width="1.5"></path><path d="M1598.91 396.86L1711.14 491.65" stroke="#132e65" stroke-width="1.5"></path><path d="M1598.91 396.86L1746.18 369.24" stroke="#132e65" stroke-width="1.5"></path><path d="M1598.91 396.86L1447.41 496.35" stroke="#132e65" stroke-width="1.5"></path><path d="M1563 529.52L1563 529.52" stroke="#132e65" stroke-width="1.5"></path><path d="M1563 529.52L1538.89 665.43" stroke="#132e65" stroke-width="1.5"></path><path d="M1538.89 665.43L1538.89 665.43" stroke="#132e65" stroke-width="1.5"></path><path d="M1689.48 -53.13L1689.48 -53.13" stroke="#132e65" stroke-width="1.5"></path><path d="M1689.48 -53.13L1753.06 90.61" stroke="#132e65" stroke-width="1.5"></path><path d="M1689.48 -53.13L1543.4 62.84" stroke="#132e65" stroke-width="1.5"></path><path d="M1753.06 90.61L1753.06 90.61" stroke="#132e65" stroke-width="1.5"></path><path d="M1753.06 90.61L1543.4 62.84" stroke="#132e65" stroke-width="1.5"></path><path d="M1753.06 90.61L1589.61 234.21" stroke="#132e65" stroke-width="1.5"></path><path d="M1753.06 90.61L1541.37 -39.01" stroke="#132e65" stroke-width="1.5"></path><path d="M1753.06 90.61L1746.18 369.24" stroke="#132e65" stroke-width="1.5"></path><path d="M1753.06 90.61L1598.91 396.86" stroke="#132e65" stroke-width="1.5"></path><path d="M1746.18 369.24L1746.18 369.24" stroke="#132e65" stroke-width="1.5"></path><path d="M1746.18 369.24L1711.14 491.65" stroke="#132e65" stroke-width="1.5"></path><path d="M1711.14 491.65L1711.14 491.65" stroke="#132e65" stroke-width="1.5"></path><path d="M1747.73 693.6L1747.73 693.6" stroke="#132e65" stroke-width="1.5"></path><path d="M1747.73 693.6L1711.14 491.65" stroke="#132e65" stroke-width="1.5"></path><path d="M1747.73 693.6L1538.89 665.43" stroke="#132e65" stroke-width="1.5"></path><path d="M1747.73 693.6L1563 529.52" stroke="#132e65" stroke-width="1.5"></path><path d="M1747.73 693.6L1439.2 655.31" stroke="#132e65" stroke-width="1.5"></path><path d="M1747.73 693.6L1746.18 369.24" stroke="#132e65" stroke-width="1.5"></path><circle r="5" cx="-99.64" cy="402.84" fill="#132e65"></circle><circle r="5" cx="-43.19" cy="540.68" fill="#132e65"></circle><circle r="5" cx="-70.13" cy="671.19" fill="#132e65"></circle><circle r="5" cx="53.12" cy="380.78" fill="#132e65"></circle><circle r="5" cx="62.28" cy="671.98" fill="#132e65"></circle><circle r="5" cx="233.83" cy="380.54" fill="#132e65"></circle><circle r="5" cx="225" cy="516.54" fill="#132e65"></circle><circle r="5" cx="202.54" cy="703.21" fill="#132e65"></circle><circle r="5" cx="354.01" cy="411.68" fill="#132e65"></circle><circle r="5" cx="376.09" cy="533.28" fill="#132e65"></circle><circle r="5" cx="411.68" cy="683.1" fill="#132e65"></circle><circle r="5" cx="558.65" cy="357.96" fill="#132e65"></circle><circle r="5" cx="506.34" cy="524.24" fill="#132e65"></circle><circle r="5" cx="544.43" cy="666.94" fill="#132e65"></circle><circle r="5" cx="704.99" cy="248.44" fill="#132e65"></circle><circle r="5" cx="655.68" cy="399.51" fill="#132e65"></circle><circle r="5" cx="687.36" cy="535.61" fill="#132e65"></circle><circle r="5" cx="668.91" cy="692.75" fill="#132e65"></circle><circle r="5" cx="851.52" cy="227.71" fill="#132e65"></circle><circle r="5" cx="822.42" cy="338.97" fill="#132e65"></circle><circle r="5" cx="835.72" cy="673.21" fill="#132e65"></circle><circle r="5" cx="998.93" cy="-106.5" fill="#132e65"></circle><circle r="5" cx="965.76" cy="75.05" fill="#132e65"></circle><circle r="5" cx="943.52" cy="191.1" fill="#132e65"></circle><circle r="5" cx="976.81" cy="348.73" fill="#132e65"></circle><circle r="5" cx="995.15" cy="551.25" fill="#132e65"></circle><circle r="5" cx="1012.07" cy="665.51" fill="#132e65"></circle><circle r="5" cx="1111.52" cy="-53.17" fill="#132e65"></circle><circle r="5" cx="1140.41" cy="78.91" fill="#132e65"></circle><circle r="5" cx="1118.64" cy="211.98" fill="#132e65"></circle><circle r="5" cx="1140.89" cy="406.82" fill="#132e65"></circle><circle r="5" cx="1153.05" cy="508.28" fill="#132e65"></circle><circle r="5" cx="1158.3" cy="701.17" fill="#132e65"></circle><circle r="5" cx="1308.53" cy="-68.12" fill="#132e65"></circle><circle r="5" cx="1296.69" cy="68.26" fill="#132e65"></circle><circle r="5" cx="1288.35" cy="203.73" fill="#132e65"></circle><circle r="5" cx="1296.17" cy="372.93" fill="#132e65"></circle><circle r="5" cx="1255.17" cy="503.65" fill="#132e65"></circle><circle r="5" cx="1277.85" cy="692.34" fill="#132e65"></circle><circle r="5" cx="1432.05" cy="-101.8" fill="#132e65"></circle><circle r="5" cx="1408.69" cy="63.57" fill="#132e65"></circle><circle r="5" cx="1391.32" cy="188.88" fill="#132e65"></circle><circle r="5" cx="1432.63" cy="377.8" fill="#132e65"></circle><circle r="5" cx="1447.41" cy="496.35" fill="#132e65"></circle><circle r="5" cx="1439.2" cy="655.31" fill="#132e65"></circle><circle r="5" cx="1541.37" cy="-39.01" fill="#132e65"></circle><circle r="5" cx="1543.4" cy="62.84" fill="#132e65"></circle><circle r="5" cx="1589.61" cy="234.21" fill="#132e65"></circle><circle r="5" cx="1598.91" cy="396.86" fill="#132e65"></circle><circle r="5" cx="1563" cy="529.52" fill="#132e65"></circle><circle r="5" cx="1538.89" cy="665.43" fill="#132e65"></circle><circle r="5" cx="1689.48" cy="-53.13" fill="#132e65"></circle><circle r="5" cx="1753.06" cy="90.61" fill="#132e65"></circle><circle r="5" cx="1746.18" cy="369.24" fill="#132e65"></circle><circle r="5" cx="1711.14" cy="491.65" fill="#132e65"></circle><circle r="5" cx="1747.73" cy="693.6" fill="#132e65"></circle><path d="M86.08 523.3L86.08 523.3" stroke="hsl(228.5, 77.2%, 51.5%)" stroke-width="1.5"></path><path d="M86.08 523.3L62.04 658.88" stroke="hsl(228.5, 77.2%, 51.5%)" stroke-width="1.5"></path><path d="M86.08 523.3L223.95 556.17" stroke="hsl(228.5, 77.2%, 51.5%)" stroke-width="1.5"></path><path d="M409.78 555.15L409.78 555.15" stroke="hsl(228.5, 77.2%, 51.5%)" stroke-width="1.5"></path><path d="M409.78 555.15L531.72 556.99" stroke="hsl(228.5, 77.2%, 51.5%)" stroke-width="1.5"></path><path d="M409.78 555.15L386.4 700.5" stroke="hsl(228.5, 77.2%, 51.5%)" stroke-width="1.5"></path><path d="M409.78 555.15L223.95 556.17" stroke="hsl(228.5, 77.2%, 51.5%)" stroke-width="1.5"></path><path d="M409.78 555.15L535.69 697.12" stroke="hsl(228.5, 77.2%, 51.5%)" stroke-width="1.5"></path><path d="M409.78 555.15L237.6 673.63" stroke="hsl(228.5, 77.2%, 51.5%)" stroke-width="1.5"></path><path d="M409.78 555.15L670.1 537.2" stroke="hsl(228.5, 77.2%, 51.5%)" stroke-width="1.5"></path><path d="M705.92 401.84L705.92 401.84" stroke="hsl(228.5, 77.2%, 51.5%)" stroke-width="1.5"></path><path d="M705.92 401.84L670.1 537.2" stroke="hsl(228.5, 77.2%, 51.5%)" stroke-width="1.5"></path><path d="M705.92 401.84L816.23 555.93" stroke="hsl(228.5, 77.2%, 51.5%)" stroke-width="1.5"></path><path d="M705.92 401.84L531.72 556.99" stroke="hsl(228.5, 77.2%, 51.5%)" stroke-width="1.5"></path><path d="M705.92 401.84L1000.3 357.12" stroke="hsl(228.5, 77.2%, 51.5%)" stroke-width="1.5"></path><path d="M705.92 401.84L849.46 688.91" stroke="hsl(228.5, 77.2%, 51.5%)" stroke-width="1.5"></path><path d="M705.92 401.84L990.63 551.96" stroke="hsl(228.5, 77.2%, 51.5%)" stroke-width="1.5"></path><path d="M990.63 551.96L990.63 551.96" stroke="hsl(228.5, 77.2%, 51.5%)" stroke-width="1.5"></path><path d="M990.63 551.96L1003.35 674.07" stroke="hsl(228.5, 77.2%, 51.5%)" stroke-width="1.5"></path><path d="M990.63 551.96L1135.66 510.61" stroke="hsl(228.5, 77.2%, 51.5%)" stroke-width="1.5"></path><path d="M990.63 551.96L816.23 555.93" stroke="hsl(228.5, 77.2%, 51.5%)" stroke-width="1.5"></path><path d="M990.63 551.96L1096.72 700.78" stroke="hsl(228.5, 77.2%, 51.5%)" stroke-width="1.5"></path><path d="M990.63 551.96L1000.3 357.12" stroke="hsl(228.5, 77.2%, 51.5%)" stroke-width="1.5"></path><path d="M1262.55 338.91L1262.55 338.91" stroke="hsl(228.5, 77.2%, 51.5%)" stroke-width="1.5"></path><path d="M1262.55 338.91L1294.14 236.23" stroke="hsl(228.5, 77.2%, 51.5%)" stroke-width="1.5"></path><path d="M1262.55 338.91L1401.91 402.22" stroke="hsl(228.5, 77.2%, 51.5%)" stroke-width="1.5"></path><path d="M1262.55 338.91L1407.79 241.54" stroke="hsl(228.5, 77.2%, 51.5%)" stroke-width="1.5"></path><path d="M1262.55 338.91L1135.66 510.61" stroke="hsl(228.5, 77.2%, 51.5%)" stroke-width="1.5"></path><path d="M1283.07 684.07L1283.07 684.07" stroke="hsl(228.5, 77.2%, 51.5%)" stroke-width="1.5"></path><path d="M1283.07 684.07L1408.88 677.77" stroke="hsl(228.5, 77.2%, 51.5%)" stroke-width="1.5"></path><path d="M1283.07 684.07L1272.22 557.15" stroke="hsl(228.5, 77.2%, 51.5%)" stroke-width="1.5"></path><path d="M1283.07 684.07L1096.72 700.78" stroke="hsl(228.5, 77.2%, 51.5%)" stroke-width="1.5"></path><path d="M1283.07 684.07L1135.66 510.61" stroke="hsl(228.5, 77.2%, 51.5%)" stroke-width="1.5"></path><path d="M1283.07 684.07L1456.09 489.56" stroke="hsl(228.5, 77.2%, 51.5%)" stroke-width="1.5"></path><path d="M1283.07 684.07L1003.35 674.07" stroke="hsl(228.5, 77.2%, 51.5%)" stroke-width="1.5"></path><path d="M1408.88 677.77L1408.88 677.77" stroke="hsl(228.5, 77.2%, 51.5%)" stroke-width="1.5"></path><path d="M1408.88 677.77L1574.48 675.66" stroke="hsl(228.5, 77.2%, 51.5%)" stroke-width="1.5"></path><path d="M1408.88 677.77L1272.22 557.15" stroke="hsl(228.5, 77.2%, 51.5%)" stroke-width="1.5"></path><path d="M1408.88 677.77L1456.09 489.56" stroke="hsl(228.5, 77.2%, 51.5%)" stroke-width="1.5"></path><path d="M1408.88 677.77L1564.73 556.23" stroke="hsl(228.5, 77.2%, 51.5%)" stroke-width="1.5"></path><path d="M1563.15 228.39L1563.15 228.39" stroke="hsl(228.5, 77.2%, 51.5%)" stroke-width="1.5"></path><path d="M1563.15 228.39L1547.37 348.58" stroke="hsl(228.5, 77.2%, 51.5%)" stroke-width="1.5"></path><path d="M1563.15 228.39L1407.79 241.54" stroke="hsl(228.5, 77.2%, 51.5%)" stroke-width="1.5"></path><path d="M1563.15 228.39L1719.56 243.26" stroke="hsl(228.5, 77.2%, 51.5%)" stroke-width="1.5"></path><path d="M1563.15 228.39L1570.94 41.21" stroke="hsl(228.5, 77.2%, 51.5%)" stroke-width="1.5"></path><path d="M1574.48 675.66L1574.48 675.66" stroke="hsl(228.5, 77.2%, 51.5%)" stroke-width="1.5"></path><path d="M1574.48 675.66L1564.73 556.23" stroke="hsl(228.5, 77.2%, 51.5%)" stroke-width="1.5"></path><path d="M1574.48 675.66L1722.05 662.84" stroke="hsl(228.5, 77.2%, 51.5%)" stroke-width="1.5"></path><path d="M1704.15 -110.82L1704.15 -110.82" stroke="hsl(228.5, 77.2%, 51.5%)" stroke-width="1.5"></path><path d="M1704.15 -110.82L1593.44 -71.46" stroke="hsl(228.5, 77.2%, 51.5%)" stroke-width="1.5"></path><path d="M1704.15 -110.82L1754.38 56.86" stroke="hsl(228.5, 77.2%, 51.5%)" stroke-width="1.5"></path><path d="M1719.56 243.26L1719.56 243.26" stroke="hsl(228.5, 77.2%, 51.5%)" stroke-width="1.5"></path><path d="M1719.56 243.26L1695.14 379.71" stroke="hsl(228.5, 77.2%, 51.5%)" stroke-width="1.5"></path><path d="M1722.05 662.84L1722.05 662.84" stroke="hsl(228.5, 77.2%, 51.5%)" stroke-width="1.5"></path><path d="M1722.05 662.84L1695.65 510.66" stroke="hsl(228.5, 77.2%, 51.5%)" stroke-width="1.5"></path><path d="M1722.05 662.84L1564.73 556.23" stroke="hsl(228.5, 77.2%, 51.5%)" stroke-width="1.5"></path><path d="M1722.05 662.84L1695.14 379.71" stroke="hsl(228.5, 77.2%, 51.5%)" stroke-width="1.5"></path><path d="M-70.7 496.19L-70.7 496.19" stroke="hsl(228.5, 77.2%, 51.5%)" stroke-width="1.5"></path><path d="M-70.7 496.19L86.08 523.3" stroke="hsl(228.5, 77.2%, 51.5%)" stroke-width="1.5"></path><path d="M-70.7 496.19L-100.9 659.26" stroke="hsl(228.5, 77.2%, 51.5%)" stroke-width="1.5"></path><path d="M-70.7 496.19L62.04 658.88" stroke="hsl(228.5, 77.2%, 51.5%)" stroke-width="1.5"></path><path d="M-70.7 496.19L223.95 556.17" stroke="hsl(228.5, 77.2%, 51.5%)" stroke-width="1.5"></path><path d="M-100.9 659.26L-100.9 659.26" stroke="hsl(228.5, 77.2%, 51.5%)" stroke-width="1.5"></path><path d="M-100.9 659.26L62.04 658.88" stroke="hsl(228.5, 77.2%, 51.5%)" stroke-width="1.5"></path><path d="M-100.9 659.26L86.08 523.3" stroke="hsl(228.5, 77.2%, 51.5%)" stroke-width="1.5"></path><path d="M-100.9 659.26L237.6 673.63" stroke="hsl(228.5, 77.2%, 51.5%)" stroke-width="1.5"></path><path d="M-100.9 659.26L223.95 556.17" stroke="hsl(228.5, 77.2%, 51.5%)" stroke-width="1.5"></path><path d="M-100.9 659.26L386.4 700.5" stroke="hsl(228.5, 77.2%, 51.5%)" stroke-width="1.5"></path><path d="M62.04 658.88L62.04 658.88" stroke="hsl(228.5, 77.2%, 51.5%)" stroke-width="1.5"></path><path d="M62.04 658.88L237.6 673.63" stroke="hsl(228.5, 77.2%, 51.5%)" stroke-width="1.5"></path><path d="M62.04 658.88L223.95 556.17" stroke="hsl(228.5, 77.2%, 51.5%)" stroke-width="1.5"></path><path d="M62.04 658.88L386.4 700.5" stroke="hsl(228.5, 77.2%, 51.5%)" stroke-width="1.5"></path><path d="M223.95 556.17L223.95 556.17" stroke="hsl(228.5, 77.2%, 51.5%)" stroke-width="1.5"></path><path d="M223.95 556.17L237.6 673.63" stroke="hsl(228.5, 77.2%, 51.5%)" stroke-width="1.5"></path><path d="M237.6 673.63L237.6 673.63" stroke="hsl(228.5, 77.2%, 51.5%)" stroke-width="1.5"></path><path d="M237.6 673.63L386.4 700.5" stroke="hsl(228.5, 77.2%, 51.5%)" stroke-width="1.5"></path><path d="M237.6 673.63L86.08 523.3" stroke="hsl(228.5, 77.2%, 51.5%)" stroke-width="1.5"></path><path d="M386.4 700.5L386.4 700.5" stroke="hsl(228.5, 77.2%, 51.5%)" stroke-width="1.5"></path><path d="M386.4 700.5L535.69 697.12" stroke="hsl(228.5, 77.2%, 51.5%)" stroke-width="1.5"></path><path d="M531.72 556.99L531.72 556.99" stroke="hsl(228.5, 77.2%, 51.5%)" stroke-width="1.5"></path><path d="M531.72 556.99L670.1 537.2" stroke="hsl(228.5, 77.2%, 51.5%)" stroke-width="1.5"></path><path d="M531.72 556.99L535.69 697.12" stroke="hsl(228.5, 77.2%, 51.5%)" stroke-width="1.5"></path><path d="M535.69 697.12L535.69 697.12" stroke="hsl(228.5, 77.2%, 51.5%)" stroke-width="1.5"></path><path d="M670.1 537.2L670.1 537.2" stroke="hsl(228.5, 77.2%, 51.5%)" stroke-width="1.5"></path><path d="M670.1 537.2L816.23 555.93" stroke="hsl(228.5, 77.2%, 51.5%)" stroke-width="1.5"></path><path d="M816.23 555.93L816.23 555.93" stroke="hsl(228.5, 77.2%, 51.5%)" stroke-width="1.5"></path><path d="M816.23 555.93L849.46 688.91" stroke="hsl(228.5, 77.2%, 51.5%)" stroke-width="1.5"></path><path d="M849.46 688.91L849.46 688.91" stroke="hsl(228.5, 77.2%, 51.5%)" stroke-width="1.5"></path><path d="M849.46 688.91L1003.35 674.07" stroke="hsl(228.5, 77.2%, 51.5%)" stroke-width="1.5"></path><path d="M849.46 688.91L990.63 551.96" stroke="hsl(228.5, 77.2%, 51.5%)" stroke-width="1.5"></path><path d="M1000.3 357.12L1000.3 357.12" stroke="hsl(228.5, 77.2%, 51.5%)" stroke-width="1.5"></path><path d="M1000.3 357.12L1135.66 510.61" stroke="hsl(228.5, 77.2%, 51.5%)" stroke-width="1.5"></path><path d="M1000.3 357.12L1262.55 338.91" stroke="hsl(228.5, 77.2%, 51.5%)" stroke-width="1.5"></path><path d="M1000.3 357.12L816.23 555.93" stroke="hsl(228.5, 77.2%, 51.5%)" stroke-width="1.5"></path><path d="M1003.35 674.07L1003.35 674.07" stroke="hsl(228.5, 77.2%, 51.5%)" stroke-width="1.5"></path><path d="M1003.35 674.07L1096.72 700.78" stroke="hsl(228.5, 77.2%, 51.5%)" stroke-width="1.5"></path><path d="M1003.35 674.07L1135.66 510.61" stroke="hsl(228.5, 77.2%, 51.5%)" stroke-width="1.5"></path><path d="M1135.66 510.61L1135.66 510.61" stroke="hsl(228.5, 77.2%, 51.5%)" stroke-width="1.5"></path><path d="M1135.66 510.61L1272.22 557.15" stroke="hsl(228.5, 77.2%, 51.5%)" stroke-width="1.5"></path><path d="M1135.66 510.61L1096.72 700.78" stroke="hsl(228.5, 77.2%, 51.5%)" stroke-width="1.5"></path><path d="M1096.72 700.78L1096.72 700.78" stroke="hsl(228.5, 77.2%, 51.5%)" stroke-width="1.5"></path><path d="M1096.72 700.78L1272.22 557.15" stroke="hsl(228.5, 77.2%, 51.5%)" stroke-width="1.5"></path><path d="M1096.72 700.78L849.46 688.91" stroke="hsl(228.5, 77.2%, 51.5%)" stroke-width="1.5"></path><path d="M1306.67 85.28L1306.67 85.28" stroke="hsl(228.5, 77.2%, 51.5%)" stroke-width="1.5"></path><path d="M1306.67 85.28L1425.31 59.7" stroke="hsl(228.5, 77.2%, 51.5%)" stroke-width="1.5"></path><path d="M1306.67 85.28L1294.14 236.23" stroke="hsl(228.5, 77.2%, 51.5%)" stroke-width="1.5"></path><path d="M1306.67 85.28L1407.79 241.54" stroke="hsl(228.5, 77.2%, 51.5%)" stroke-width="1.5"></path><path d="M1306.67 85.28L1433.78 -65.62" stroke="hsl(228.5, 77.2%, 51.5%)" stroke-width="1.5"></path><path d="M1306.67 85.28L1262.55 338.91" stroke="hsl(228.5, 77.2%, 51.5%)" stroke-width="1.5"></path><path d="M1294.14 236.23L1294.14 236.23" stroke="hsl(228.5, 77.2%, 51.5%)" stroke-width="1.5"></path><path d="M1294.14 236.23L1407.79 241.54" stroke="hsl(228.5, 77.2%, 51.5%)" stroke-width="1.5"></path><path d="M1294.14 236.23L1401.91 402.22" stroke="hsl(228.5, 77.2%, 51.5%)" stroke-width="1.5"></path><path d="M1272.22 557.15L1272.22 557.15" stroke="hsl(228.5, 77.2%, 51.5%)" stroke-width="1.5"></path><path d="M1272.22 557.15L1456.09 489.56" stroke="hsl(228.5, 77.2%, 51.5%)" stroke-width="1.5"></path><path d="M1272.22 557.15L1401.91 402.22" stroke="hsl(228.5, 77.2%, 51.5%)" stroke-width="1.5"></path><path d="M1272.22 557.15L1262.55 338.91" stroke="hsl(228.5, 77.2%, 51.5%)" stroke-width="1.5"></path><path d="M1433.78 -65.62L1433.78 -65.62" stroke="hsl(228.5, 77.2%, 51.5%)" stroke-width="1.5"></path><path d="M1433.78 -65.62L1425.31 59.7" stroke="hsl(228.5, 77.2%, 51.5%)" stroke-width="1.5"></path><path d="M1433.78 -65.62L1593.44 -71.46" stroke="hsl(228.5, 77.2%, 51.5%)" stroke-width="1.5"></path><path d="M1425.31 59.7L1425.31 59.7" stroke="hsl(228.5, 77.2%, 51.5%)" stroke-width="1.5"></path><path d="M1407.79 241.54L1407.79 241.54" stroke="hsl(228.5, 77.2%, 51.5%)" stroke-width="1.5"></path><path d="M1407.79 241.54L1401.91 402.22" stroke="hsl(228.5, 77.2%, 51.5%)" stroke-width="1.5"></path><path d="M1407.79 241.54L1547.37 348.58" stroke="hsl(228.5, 77.2%, 51.5%)" stroke-width="1.5"></path><path d="M1401.91 402.22L1401.91 402.22" stroke="hsl(228.5, 77.2%, 51.5%)" stroke-width="1.5"></path><path d="M1401.91 402.22L1456.09 489.56" stroke="hsl(228.5, 77.2%, 51.5%)" stroke-width="1.5"></path><path d="M1401.91 402.22L1547.37 348.58" stroke="hsl(228.5, 77.2%, 51.5%)" stroke-width="1.5"></path><path d="M1456.09 489.56L1456.09 489.56" stroke="hsl(228.5, 77.2%, 51.5%)" stroke-width="1.5"></path><path d="M1456.09 489.56L1564.73 556.23" stroke="hsl(228.5, 77.2%, 51.5%)" stroke-width="1.5"></path><path d="M1456.09 489.56L1547.37 348.58" stroke="hsl(228.5, 77.2%, 51.5%)" stroke-width="1.5"></path><path d="M1456.09 489.56L1574.48 675.66" stroke="hsl(228.5, 77.2%, 51.5%)" stroke-width="1.5"></path><path d="M1593.44 -71.46L1593.44 -71.46" stroke="hsl(228.5, 77.2%, 51.5%)" stroke-width="1.5"></path><path d="M1593.44 -71.46L1570.94 41.21" stroke="hsl(228.5, 77.2%, 51.5%)" stroke-width="1.5"></path><path d="M1570.94 41.21L1570.94 41.21" stroke="hsl(228.5, 77.2%, 51.5%)" stroke-width="1.5"></path><path d="M1570.94 41.21L1425.31 59.7" stroke="hsl(228.5, 77.2%, 51.5%)" stroke-width="1.5"></path><path d="M1570.94 41.21L1433.78 -65.62" stroke="hsl(228.5, 77.2%, 51.5%)" stroke-width="1.5"></path><path d="M1570.94 41.21L1754.38 56.86" stroke="hsl(228.5, 77.2%, 51.5%)" stroke-width="1.5"></path><path d="M1547.37 348.58L1547.37 348.58" stroke="hsl(228.5, 77.2%, 51.5%)" stroke-width="1.5"></path><path d="M1547.37 348.58L1695.14 379.71" stroke="hsl(228.5, 77.2%, 51.5%)" stroke-width="1.5"></path><path d="M1564.73 556.23L1564.73 556.23" stroke="hsl(228.5, 77.2%, 51.5%)" stroke-width="1.5"></path><path d="M1564.73 556.23L1695.65 510.66" stroke="hsl(228.5, 77.2%, 51.5%)" stroke-width="1.5"></path><path d="M1754.38 56.86L1754.38 56.86" stroke="hsl(228.5, 77.2%, 51.5%)" stroke-width="1.5"></path><path d="M1695.14 379.71L1695.14 379.71" stroke="hsl(228.5, 77.2%, 51.5%)" stroke-width="1.5"></path><path d="M1695.14 379.71L1695.65 510.66" stroke="hsl(228.5, 77.2%, 51.5%)" stroke-width="1.5"></path><path d="M1695.65 510.66L1695.65 510.66" stroke="hsl(228.5, 77.2%, 51.5%)" stroke-width="1.5"></path><path d="M1695.65 510.66L1574.48 675.66" stroke="hsl(228.5, 77.2%, 51.5%)" stroke-width="1.5"></path><path d="M1695.65 510.66L1547.37 348.58" stroke="hsl(228.5, 77.2%, 51.5%)" stroke-width="1.5"></path><path d="M1695.65 510.66L1456.09 489.56" stroke="hsl(228.5, 77.2%, 51.5%)" stroke-width="1.5"></path><circle r="25" cx="86.08" cy="523.3" fill="url(&quot;#SvgjsRadialGradient1603&quot;)"></circle><circle r="25" cx="409.78" cy="555.15" fill="url(&quot;#SvgjsRadialGradient1603&quot;)"></circle><circle r="25" cx="705.92" cy="401.84" fill="url(&quot;#SvgjsRadialGradient1603&quot;)"></circle><circle r="25" cx="990.63" cy="551.96" fill="url(&quot;#SvgjsRadialGradient1603&quot;)"></circle><circle r="25" cx="1262.55" cy="338.91" fill="url(&quot;#SvgjsRadialGradient1603&quot;)"></circle><circle r="25" cx="1283.07" cy="684.07" fill="url(&quot;#SvgjsRadialGradient1603&quot;)"></circle><circle r="25" cx="1408.88" cy="677.77" fill="url(&quot;#SvgjsRadialGradient1603&quot;)"></circle><circle r="25" cx="1563.15" cy="228.39" fill="url(&quot;#SvgjsRadialGradient1603&quot;)"></circle><circle r="25" cx="1574.48" cy="675.66" fill="url(&quot;#SvgjsRadialGradient1603&quot;)"></circle><circle r="25" cx="1704.15" cy="-110.82" fill="url(&quot;#SvgjsRadialGradient1603&quot;)"></circle><circle r="25" cx="1719.56" cy="243.26" fill="url(&quot;#SvgjsRadialGradient1603&quot;)"></circle><circle r="25" cx="1722.05" cy="662.84" fill="url(&quot;#SvgjsRadialGradient1603&quot;)"></circle><circle r="5" cx="-70.7" cy="496.19" fill="#8b9ad9"></circle><circle r="5" cx="-100.9" cy="659.26" fill="#8b9ad9"></circle><circle r="5" cx="62.04" cy="658.88" fill="#8b9ad9"></circle><circle r="5" cx="223.95" cy="556.17" fill="#8b9ad9"></circle><circle r="5" cx="237.6" cy="673.63" fill="#8b9ad9"></circle><circle r="5" cx="386.4" cy="700.5" fill="#8b9ad9"></circle><circle r="5" cx="531.72" cy="556.99" fill="#8b9ad9"></circle><circle r="5" cx="535.69" cy="697.12" fill="#8b9ad9"></circle><circle r="5" cx="670.1" cy="537.2" fill="#8b9ad9"></circle><circle r="5" cx="816.23" cy="555.93" fill="#8b9ad9"></circle><circle r="5" cx="849.46" cy="688.91" fill="#8b9ad9"></circle><circle r="5" cx="1000.3" cy="357.12" fill="#8b9ad9"></circle><circle r="5" cx="1003.35" cy="674.07" fill="#8b9ad9"></circle><circle r="5" cx="1135.66" cy="510.61" fill="#8b9ad9"></circle><circle r="5" cx="1096.72" cy="700.78" fill="#8b9ad9"></circle><circle r="5" cx="1306.67" cy="85.28" fill="#8b9ad9"></circle><circle r="5" cx="1294.14" cy="236.23" fill="#8b9ad9"></circle><circle r="5" cx="1272.22" cy="557.15" fill="#8b9ad9"></circle><circle r="5" cx="1433.78" cy="-65.62" fill="#8b9ad9"></circle><circle r="5" cx="1425.31" cy="59.7" fill="#8b9ad9"></circle><circle r="5" cx="1407.79" cy="241.54" fill="#8b9ad9"></circle><circle r="5" cx="1401.91" cy="402.22" fill="#8b9ad9"></circle><circle r="5" cx="1456.09" cy="489.56" fill="#8b9ad9"></circle><circle r="5" cx="1593.44" cy="-71.46" fill="#8b9ad9"></circle><circle r="5" cx="1570.94" cy="41.21" fill="#8b9ad9"></circle><circle r="5" cx="1547.37" cy="348.58" fill="#8b9ad9"></circle><circle r="5" cx="1564.73" cy="556.23" fill="#8b9ad9"></circle><circle r="5" cx="1754.38" cy="56.86" fill="#8b9ad9"></circle><circle r="5" cx="1695.14" cy="379.71" fill="#8b9ad9"></circle><circle r="5" cx="1695.65" cy="510.66" fill="#8b9ad9"></circle></g><defs><mask id="SvgjsMask1602"><rect width="1603" height="560" fill="#ffffff"></rect></mask><radialGradient id="SvgjsRadialGradient1603"><stop stop-color="#ffffff" offset="0.1"></stop><stop stop-color="#1735b3" offset="0.2"></stop><stop stop-color="rgba(23, 53, 179, 0)" offset="1"></stop></radialGradient></defs></svg>