<svg xmlns="http://www.w3.org/2000/svg" version="1.1" xmlns:xlink="http://www.w3.org/1999/xlink" xmlns:svgjs="http://svgjs.dev/svgjs" width="1440" height="560" preserveAspectRatio="none" viewBox="0 0 1440 560"><g mask="url(&quot;#SvgjsMask1012&quot;)" fill="none"><rect width="1440" height="560" x="0" y="0" fill="rgba(22, 27, 47, 1)"></rect><circle r="8.655" cx="619.345" cy="326.085" filter="url(#SvgjsFilter1013)" fill="rgba(107, 140, 191, 1)"></circle><circle r="5.955" cx="123.625" cy="450.515" filter="url(#SvgjsFilter1013)" fill="rgba(107, 140, 191, 1)"></circle><circle r="8.075" cx="1089.105" cy="21.174999999999997" filter="url(#SvgjsFilter1013)" fill="rgba(107, 140, 191, 1)"></circle><circle r="4.67" cx="1233.25" cy="238.39" filter="url(#SvgjsFilter1013)" fill="rgba(107, 140, 191, 1)"></circle><circle r="8.68" cx="1036.72" cy="72" filter="url(#SvgjsFilter1013)" fill="rgba(107, 140, 191, 1)"></circle><circle r="8.01" cx="1435.72" cy="426.88" filter="url(#SvgjsFilter1013)" fill="rgba(107, 140, 191, 1)"></circle><circle r="8.82" cx="1260.1" cy="310.82" filter="url(#SvgjsFilter1013)" fill="rgba(107, 140, 191, 1)"></circle><circle r="5.025" cx="957.615" cy="99.08500000000001" filter="url(#SvgjsFilter1013)" fill="rgba(107, 140, 191, 1)"></circle><circle r="5.57" cx="941.23" cy="383.9" filter="url(#SvgjsFilter1013)" fill="rgba(107, 140, 191, 1)"></circle><circle r="6.835" cx="1263.855" cy="505.445" filter="url(#SvgjsFilter1013)" fill="rgba(107, 140, 191, 1)"></circle><circle r="5.145" cx="1403.135" cy="424.565" filter="url(#SvgjsFilter1013)" fill="rgba(107, 140, 191, 1)"></circle><circle r="6.36" cx="924.52" cy="176.3" filter="url(#SvgjsFilter1013)" fill="rgba(107, 140, 191, 1)"></circle><circle r="8.045" cx="621.4749999999999" cy="399.315" filter="url(#SvgjsFilter1013)" fill="rgba(107, 140, 191, 1)"></circle><circle r="7.72" cx="1289.49" cy="468.53000000000003" filter="url(#SvgjsFilter1013)" fill="rgba(107, 140, 191, 1)"></circle><circle r="6.08" cx="839.23" cy="259.49" filter="url(#SvgjsFilter1013)" fill="rgba(107, 140, 191, 1)"></circle><circle r="6.275" cx="206.665" cy="553.135" filter="url(#SvgjsFilter1013)" fill="rgba(107, 140, 191, 1)"></circle><circle r="6.82" cx="1302.11" cy="28.73" filter="url(#SvgjsFilter1013)" fill="rgba(107, 140, 191, 1)"></circle><circle r="5.375" cx="1000.165" cy="199.295" filter="url(#SvgjsFilter1013)" fill="rgba(107, 140, 191, 1)"></circle><circle r="5.01" cx="209.38" cy="240.39" filter="url(#SvgjsFilter1013)" fill="rgba(107, 140, 191, 1)"></circle><circle r="8.505" cx="1249.545" cy="125.925" filter="url(#SvgjsFilter1013)" fill="rgba(107, 140, 191, 1)"></circle><path d="M348.2 522.3L328.6 517.8 337.5 507.6C338.5 506.6 338.5 504.5 337.3 502.9 335.7 502.1 333.7 502.1 332.7 503.1L320.8 516.3 302.6 512 327 485.4C328.4 483.6 328.5 481.6 326.8 480.7 325.6 479.1 323.6 479.1 322.2 480.9L295.3 510.3 278.8 506.9 266.9 469.7 276.7 458.5 318.1 468.1C318.7 467.9 319.3 467.7 319.9 467.5 320.5 467.3 321.5 466.3 322 465.5 322.6 463.3 321.4 461.6 319.4 461.6L281.6 452.9 294.1 439.5 313.5 443.3C313.7 443.9 314.3 443.7 314.9 443.6 316.1 443.2 317.2 442.2 317.4 440.7 317.6 439.3 316.4 437.7 314.8 436.9L299.1 433.9 314.4 416.8C315.5 415.8 315.5 413.8 314.3 412.2 312.7 411.3 310.6 411.3 309.6 412.3L295.3 428.3 291.2 415.5C290.6 413.7 288.4 413.1 287.1 413.5 285.3 414.1 283.9 415.9 284.5 417.7L289.7 434.2 277.2 447.6 266.3 413.4C265.7 411.6 264.1 410.8 262.3 411.4 260.4 412 259.6 413.6 260.2 415.4L272.3 453.2 262.1 465.2 223.7 456.7 219.2 442.6 246.5 412.4C248.1 411.2 247.9 408.6 246.3 407.7 245.1 406.1 243.3 406.7 241.7 407.9L216.9 435.3 211.2 417.7 223.7 404.2C224.7 403.2 224.5 400.6 223.5 399.6S219.9 398.7 218.3 399.9L208.9 410.3 202 389C201.4 387.2 199.2 386.5 197.4 387.1 196.2 387.5 194.7 389.3 195.3 391.2L202.1 412.5 187.8 409.7C186.4 409.5 184.6 410.1 183.9 412.3 183.7 413.7 185.1 415.9 186.5 416.2L204.5 419.8 210.2 437.5 174 429.6C172 429.5 170.2 430.1 169.5 432.4 169.3 433.8 170.7 436 172.1 436.2L212.5 444.8 217 458.8 190.7 488.1 175.4 484.2 163.3 446.4C162.7 444.6 161.1 443.8 159.3 444.4 157.4 445 156 446.8 156.6 448.6L167.5 482.7 149.6 479.1 144.3 462.6C143.7 460.8 142.1 460 140.3 460.6 138.4 461.1 137.6 462.7 138.2 464.6L142.3 477.4 121.3 472.7C119.9 472.5 117.6 473.8 117.4 475.3 117.4 477.3 118 479.1 120 479.1L141.8 484.2 131.4 495.7C130.5 497.3 130.5 499.3 131.5 500.3 132.5 501.3 133.9 501.6 135.1 501.2 135.1 501.2 135.7 501 136.2 500.2L149.7 485.8 167.7 489.4 142 518.5C140.4 519.7 140.4 521.7 142.2 523.1 143 523.5 143.8 523.9 145 523.6 145.6 523.4 146.2 523.2 146.8 523L174.9 491.1 189.5 494.5 201.4 531.7 189.9 544.1 150.9 535.8C148.7 535.1 147.1 536.3 147.1 538.4 146.2 540 147.4 541.6 149.6 542.2L185 549.7 172.7 563.7 155.3 559.9C153.9 559.7 152.3 560.9 151.4 562.5 151.4 564.5 152 566.3 154 566.4L167.1 569.6 153.8 584.6C152.2 585.8 152.8 587.6 153.9 589.2 154.8 589.6 156.2 589.9 157.4 589.5 157.4 589.5 158 589.3 158.6 589.1L173 573.1 177.8 588.3C178.2 589.5 180 591 181.9 590.4 183.7 589.8 184.3 587.6 183.9 586.3L177.9 567.4 190.2 553.4 202.1 590.6C202.7 592.4 204.9 593.1 206.7 592.5S209.4 590.3 208.8 588.5L195.7 547.6 206.2 536.2 244.5 544.7 249.6 560.6 221.7 591C220.9 592.6 220.9 594.7 222.1 596.3 222.9 596.7 224.3 596.9 225.5 596.5 226.1 596.3 226.7 596.1 227.1 595.3L252 567.9 257.6 585.6 245.3 599.6C244.3 600.6 244.3 602.6 245.5 604.3 247.1 605.1 249.1 605.1 250.1 604.1L260 592.9 266.2 612.4C266.6 613.6 269 614.9 270.2 614.5 272.1 613.9 273.3 611.5 272.9 610.2L266.7 590.7 280.6 594.3C281.2 594.2 281.8 594 282.4 593.8 283.6 593.4 284.7 592.4 285.1 591.6 285.1 589.5 283.9 587.9 282.3 587.1L264.3 583.4 258.7 565.8 294.8 573.7C297 574.3 298.6 573.1 298.9 571.7 299.5 569.5 298.3 567.8 296.7 567L256.3 558.4 251.2 542.6 277.5 513.4 292.6 516.6 305.7 557.4C306.3 559.2 307.9 560.1 309.7 559.5 311.6 558.9 312.4 557.3 311.8 555.4L299.9 518.3 318.1 522.5 324.1 541.4C324.5 542.6 326.9 543.9 328.7 543.3 330.6 542.7 331.2 540.5 330.8 539.3L325.9 524 346.9 528.7C347.5 528.5 347.5 528.5 348.1 528.3 349.4 527.9 350.4 526.9 350.8 526.1 350.8 524.1 349.6 522.5 348.2 522.3ZM248.9 535.3L245.8 538.3 242.2 537.4 211.1 530.6 207.5 529.7 206.3 526.1 196.7 496.2 195.6 492.6 198 489.8 219.3 466.1 221.8 463.3 226 464 256.5 471 260.8 471.7 261.9 475.3 271.5 505.2 272.7 508.8 269.6 511.8 248.9 535.3Z" fill="rgba(107, 140, 191, 1)"></path><path d="M994 392.4L1034.1 357.6 1081.2 361.3 1054.5 400.4 1002.2 409.7C1002.2 409.7 1001.7 410 1001.7 410 1000.5 410.6 999.9 412.3 999.9 413.7 1000.1 415.7 1002.1 416.9 1003.8 416.1L1049.5 407.7 1036.6 426.7 1016.5 430.6C1016.5 430.6 1015.9 430.9 1015.9 430.9 1014.7 431.4 1014.1 433.1 1014.1 434.6 1014.4 436.6 1016.3 437.8 1018.1 436.9L1031.9 434.6 1022.2 448.5C1021.3 449.6 1021.8 452.2 1022.9 453 1024.3 454.5 1026.7 453.4 1027.5 452.3L1037.2 438.4 1039.6 452.2C1039.8 454.2 1041.8 455.4 1043.5 454.6 1045.5 454.3 1046.7 452.3 1045.9 450.6L1041.9 430.5 1055.2 412.1 1063.5 457.8C1063.8 459.8 1065.7 461 1067.5 460.1 1069.5 459.9 1070.7 457.9 1069.8 456.2L1060.5 403.9 1087.2 364.9 1107.9 408.2 1090.1 458.5C1089.5 460.2 1090.3 462 1092 462.6 1093.8 463.2 1095.5 462.3 1096.1 460.6L1111.8 416.3 1121.7 437 1115.1 455.8C1114.5 457.5 1115.3 459.3 1117 459.9 1118.7 460.5 1120.4 459.6 1121 457.9L1125.6 445.1 1133.3 461.3C1133.5 463.3 1135.8 463.6 1137.6 462.8 1139.3 462 1139.9 460.3 1139.1 458.5L1131.9 443.5 1144.7 448C1146.4 448.6 1148.1 447.8 1148.7 446.1S1148.5 442.7 1146.8 442.1L1128 435.4 1118.1 414.7 1162.5 430.3C1164.2 430.9 1165.9 430.1 1166.5 428.4 1167.1 426.7 1166.3 425 1164.6 424.4L1114.2 406.6 1093.8 363.8 1141 367.5 1174.6 406.8C1176 408.2 1178 408 1179.8 407.2 1181.2 405.8 1181 403.7 1180.1 402L1149.8 366.8 1172.7 368.7 1185.9 384.4C1187.3 385.8 1189.3 385.6 1191 384.7 1192.5 383.3 1192.2 381.3 1191.7 380.2L1182.4 369.7 1199.3 370.9C1200.7 370.9 1203 369.8 1202.8 367.8 1202.5 365.8 1201.7 364 1199.7 364.3L1182.8 363.1 1193.3 353.9C1194.8 352.5 1194.5 350.5 1194 349.3 1192.8 348.4 1191.1 347.8 1190 348.4 1190 348.4 1189.4 348.6 1189.4 348.6L1173.7 361.8 1150.8 360 1186 329.7C1187.5 328.3 1187.2 326.3 1186.7 325.1 1185.5 324.2 1183.8 323.6 1182.7 324.2 1182.7 324.2 1182.1 324.5 1182.1 324.5L1142 359.3 1094.8 355.6 1121.5 316.5 1173.8 307.1C1175.8 306.9 1177 304.9 1176.2 303.2 1175.9 301.2 1173.9 300 1172.2 300.8L1126.5 309.2 1139.5 290.2 1159.6 286.3C1161.6 286 1162.8 284.1 1161.9 282.3 1161.7 280.3 1159.7 279.1 1158 280L1144.2 282.3 1153.9 268.4C1154.8 267.3 1154.2 264.7 1153.1 263.8 1152 263 1150.5 262.9 1149.4 263.5 1148.8 263.8 1148.2 264 1147.9 264.9L1138.2 278.8 1135.9 265C1135.7 263 1133.7 261.8 1131.9 262.6 1131.9 262.6 1131.4 262.9 1131.4 262.9 1130.2 263.4 1129.6 265.1 1129.6 266.6L1133.5 286.7 1120.6 305.6 1112.2 260C1112 258 1110 256.8 1108.3 257.6 1108.3 257.6 1107.7 257.9 1107.7 257.9 1106.5 258.4 1105.9 260.1 1105.9 261.6L1115.3 313.8 1088.5 352.9 1068.1 310.1 1085.9 259.8C1086.5 258.1 1085.7 256.4 1084 255.7 1082.3 255.1 1080.5 256 1079.9 257.7L1064 301.5 1054 280.7 1060.7 261.9C1061.3 260.2 1060.5 258.5 1058.7 257.9S1055.3 258.1 1054.7 259.8L1050.2 272.6 1043 257.6C1042.2 255.9 1040.5 255.3 1038.7 256.1 1037 256.9 1036.4 258.6 1037.2 260.4L1044.4 275.4 1031.6 270.9C1030.8 270.5 1029.9 270.2 1028.7 270.8S1027.3 272.2 1027 273.1C1026.4 274.8 1027.2 276.5 1028.9 277.1L1047.7 283.7 1057.6 304.5 1013.3 288.8C1012.4 288.5 1011.5 288.2 1010.4 288.8 1009.8 289.1 1008.9 290.2 1008.6 291.1 1008 292.8 1008.9 294.5 1010.6 295.1L1060.9 312.9 1081.3 355.6 1034.2 351.9 999.4 311.8C998.3 310.9 996.6 310.3 995.4 310.9 995.4 310.9 994.8 311.1 994.8 311.1 993.4 312.5 993.6 314.5 994.2 315.7L1024.5 350.9 1001.6 349 988.4 333.3C987.3 332.5 985.6 331.9 984.4 332.4 984.4 332.4 983.8 332.7 983.8 332.7 982.4 334.1 982.6 336.1 983.2 337.3L992.5 347.7 975.6 346.6C975 346.9 974.2 346.6 973.6 346.8 972.4 347.4 971.5 348.5 971.5 349.9 971.8 351.9 972.6 353.7 974.6 353.4L991.5 354.6 981 363.8C979.6 365.3 979.8 367.3 980.4 368.4 981.8 369.9 983.8 369.6 984.9 369.1L1000.6 355.9 1023.5 357.7 988.3 388C986.9 389.4 987.1 391.4 987.7 392.6 990.2 393.5 992.5 393.8 994 392.4Z" fill="rgba(107, 140, 191, 1)"></path><path d="M1382.6 261.2L1378.7 228.3 1384.1 221 1404.3 223.8 1408 232.4 1394.9 262.9C1394.8 263.2 1394.8 263.2 1394.8 263.6 1394.7 264.4 1395 265.3 1396.1 265.8 1397.3 266 1398.1 265.7 1398.7 264.6L1410.1 237.9 1415.5 251.2 1410.6 263C1410.6 263 1410.6 263.4 1410.6 263.4 1410.5 264.2 1410.7 265 1411.9 265.6 1412.6 266.1 1413.9 265.5 1414.5 264.3L1418 256.7 1421.8 266.6C1422.1 267.4 1423.3 268 1424.5 267.7S1426 265.9 1425.7 264.7L1421.8 255.3 1429.4 258.3C1430.6 258.9 1431.9 258.3 1432.4 257.1 1432.5 256.3 1432.3 255.1 1431.2 254.5L1419.3 249.7 1414 236 1440.6 247.4C1441.8 247.9 1443.1 247.3 1443.6 246.6 1443.7 245.4 1443.5 244.1 1442.4 243.6L1411.8 230.9 1408.2 221.9 1420.5 206.2 1430 207.5 1450.2 233.7C1450.9 234.6 1452.1 234.8 1453 234.1S1454 232.3 1453.4 231.3L1435.5 208.3 1450.2 210.3 1457.7 220.2C1458.4 221.1 1459.6 221.3 1460.9 220.7S1462 218.8 1461.3 217.9L1455.8 211.1 1466.4 212.6C1467.6 212.7 1468.6 211.6 1468.8 210.5 1468.9 209.3 1468.2 208.4 1467.1 208.2L1456.4 206.7 1463.1 201.6C1464.4 201 1464.6 199.8 1463.5 198.8 1462.8 197.9 1461.6 197.8 1460.7 198.4L1450.8 206 1436.1 203.9 1459.5 186.6C1460.4 185.9 1460.7 184.3 1460 183.4S1458.1 182.3 1457.2 183L1430.6 203.2 1421.1 201.9 1413.6 183.1 1419.4 175.8 1452.3 171.8C1453.5 171.6 1454.1 170.5 1454.3 169.3 1454 168 1452.9 167.5 1451.7 167.3L1422.9 171 1431.7 159.7 1444.5 158.2C1445.7 158 1446.3 156.9 1446.4 155.7 1446.2 154.8 1445.1 153.9 1443.8 154.1L1435.6 155 1442 146.6C1442.5 145.9 1442.3 144.6 1441.6 143.7 1440.5 143.2 1439.3 143.4 1438.7 144.1L1432.3 152.5 1431.1 143.9C1430.8 143 1429.7 142.1 1428.9 142.4 1427.7 142.2 1427.2 142.9 1427 144.1 1427 144.1 1427 144.5 1427 144.5L1428.5 157.2 1419.6 168.5 1415.9 139.8C1415.7 138.5 1415 137.6 1413.8 137.9 1412.5 138.1 1412 138.8 1411.9 139.6 1411.9 140 1411.9 140 1411.9 140L1416.1 173.3 1410.3 180.6 1390.1 177.8 1386.8 169.3 1399.6 138.3C1400.1 137.6 1399.5 136.3 1398.7 135.8 1397.6 135.2 1396.3 135.8 1395.7 137L1384.4 163.7 1378.9 150.4 1383.8 138.6C1384.4 137.4 1384.1 136.2 1382.9 136 1381.8 135.5 1380.5 136.1 1380 136.8L1376.9 144.9 1373 135.1C1372.3 134.1 1371.2 133.6 1369.9 133.8 1369.5 134.2 1369 134.9 1368.8 135.7 1368.8 136.1 1368.8 136.1 1369.1 136.5L1373 146.4 1365 143.2C1363.8 142.7 1362.9 143.4 1362.4 144.1 1362.4 144.5 1362.4 144.5 1362.3 144.9 1362.2 145.7 1362.5 146.5 1363.2 147L1375.1 151.9 1380.5 165.2 1353.8 153.8C1352.6 153.6 1351.4 153.9 1351.2 155.1 1350.8 155.4 1350.8 155.4 1350.7 155.8 1350.6 156.6 1351.3 157.5 1352 158L1383 170.8 1386.2 179.3 1373.9 195.3 1364.8 194.1 1344.7 167.5C1344 166.6 1342.4 166.4 1341.5 167S1340.4 169.3 1341.1 170.2L1358.9 193.3 1344.6 191.3 1336.7 181.3C1336 180.4 1334.8 180.3 1333.9 180.9 1333 181.6 1332.9 182.8 1333.5 183.7L1338.7 190.5 1328 189C1327.2 188.9 1325.9 189.5 1325.7 190.7 1325.6 191.9 1326.6 193.3 1327.4 193.4L1338.1 194.8 1331.3 200C1330.9 200.3 1330.4 200.6 1330.3 201 1330.2 201.8 1330.6 202.3 1330.9 202.7 1331.6 203.6 1332.8 203.8 1333.7 203.1L1344 195.7 1358.3 197.6 1334.9 215C1334.4 215.3 1334.4 215.7 1334.3 216.5 1334.2 216.9 1334.2 217.3 1334.5 217.8 1335.2 218.7 1336.8 218.9 1337.7 218.2L1364.2 198.5 1373.3 199.7 1380.9 218.1 1375.4 225.8 1342.1 229.7C1341.3 230 1340.4 230.7 1340.3 231.5 1340.2 231.9 1340.2 231.9 1340.6 231.9 1340.5 233.1 1341.5 234.1 1342.8 233.9L1371.6 230.2 1362.7 241.8 1349.9 243.3C1349.1 243.6 1348.6 244.3 1348.5 245.1 1348.5 245.1 1348.4 245.5 1348.4 245.5 1348.3 246.7 1349.3 247.7 1350.6 247.4L1359.2 246.2 1352.8 254.6C1352.4 255 1352.3 255.4 1352.3 255.8 1352.2 256.5 1352.4 257.4 1352.8 257.4 1353.9 258.4 1355.2 258.2 1356.1 257.5L1362.5 249.1 1363.4 257.3C1363.6 258.5 1364.7 259.5 1365.9 259.3 1366.8 259 1367.7 257.9 1367.4 257L1366 244.3 1374.8 233 1378.5 261.8C1378.7 263 1379.9 263.6 1381 263.8 1381.9 263.5 1382.8 262.4 1382.6 261.2ZM1402.6 219.1L1387.1 217 1384.7 216.6 1383.8 214.5 1378.1 200.4 1377.2 197.8 1378.7 196 1388 184 1389.5 182.2 1391.9 182.5 1407.3 184.6 1409.7 184.9 1410.6 187.1 1416.3 201.2 1417.2 203.3 1415.7 205.6 1406.4 217.6 1404.9 219.4 1402.6 219.1Z" fill="rgba(107, 140, 191, 1)"></path><path d="M416.6 130.7L401.6 110 403.3 100.8 408.3 107.8C408.7 108.7 409.7 108.7 410.6 108.3 411.1 107.8 411.3 106.7 410.8 106.2L404.1 96.4 405.5 87.3 412.5 93.3 413.5 105.2C413.5 105.2 413.6 105.5 413.6 105.5 413.9 106.1 414.7 106.5 415.4 106.5 416.3 106.2 416.8 105.7 416.7 104.7L415.9 96.1 422.9 102 425.6 127.3C425.6 127.3 425.4 127.7 425.4 127.7 425.6 128.3 426.4 128.7 427.1 128.8 428.1 128.8 428.8 127.8 428.5 126.9L426.4 104.8 435.1 111.8 436.1 121.7C436.1 121.7 436.1 121.7 436.2 122 436.4 122.6 436.9 123.1 437.7 123.1 438.6 122.8 439.3 122.2 439.3 121.2L438.6 114.6 444.9 119.7C445.6 120.5 446.5 120.2 446.9 119.7 447.7 119 447.7 118 446.8 117.4L440.7 112.1 447.1 111.8C448 111.4 448.8 110.8 448.4 109.9 448.4 108.9 447.9 108.4 446.8 108.4L437 109.4 428.5 102.3 450.9 100.1C451.6 100.2 452.3 99.2 452.3 98.2 452 97.6 451.4 96.8 450.4 96.9L425.1 99.5 418.1 93.6 426.6 92.8C427.7 92.7 428 91.9 428 90.9 428.1 90.2 427.1 89.5 426.4 89.4L414.6 90.8 407.3 84.9 416 81.7 426.7 86.6C427.5 87 428.4 86.6 428.8 85.8 429.3 85.3 428.9 84.1 428 83.7L420.2 80.1 428.9 76.9 452.1 87.7C452.9 88.1 453.8 87.7 454.2 86.9 454.6 86.1 454.2 85.2 453.4 84.8L433.1 75.3 443.3 71.5 452.4 75.6C453.2 76 454.1 75.7 454.5 74.9 454.8 74 454.5 73.1 453.7 72.8L447.8 69.8 455.3 67C456.2 66.7 456.6 65.9 456.2 65 455.9 64.1 455.1 63.7 454.2 64L446.7 66.8 449.3 61.1C449.7 60.2 449.3 59.3 448.5 59S446.8 58.9 446.4 59.8L442.5 68.4 432 72.3 441.2 52.1C441.6 51.3 441.2 50.4 440.4 50 439.6 49.7 438.7 50 438.3 50.8L427.8 73.9 419.1 77.1 422.7 69.3C423 68.5 422.7 67.6 421.9 67.2 421.1 66.8 420.2 67.2 419.8 68L414.9 78.7 406.5 81.8 408 73.1 417.7 66C418.2 65.5 418.4 64.4 417.9 63.9 417.3 63.1 416.6 63 415.7 63.4L408.7 68.4 410.2 59.6 430.9 44.7C431.7 44.1 431.8 43.4 431.4 42.5 430.8 41.7 429.8 41.7 429.2 41.9L410.8 55 412.8 43.9 420.6 38.3C421.5 38 421.5 37 421.2 36.1 420.6 35.6 419.5 35.3 418.7 35.9L413.6 39.6 414.7 31.6C415.1 30.8 414.5 30 413.3 29.8 412.6 29.7 411.8 30.3 411.8 31L410.3 39.1 406.6 33.6C406 32.9 405 32.9 404.5 33.4 403.6 33.7 403.5 34.5 403.7 35.1 403.8 35.4 403.8 35.4 403.9 35.7L409.6 43.5 407.5 54.5 394.6 36.4C394.3 35.5 393.3 35.5 392.4 35.9 391.9 36.4 391.8 37.1 392.1 37.7 392.2 38 392.2 38 392.2 38L406.9 59.1 405.4 67.9 400.4 60.9C399.8 60.1 399 60 398.1 60.4 397.7 60.9 397.3 61.7 397.5 62.3 397.6 62.6 397.6 62.6 397.7 62.9L404.8 72.6 403.2 81.3 396.4 75.7 395 63.9C395 62.9 394.1 62.2 393.3 62.2 392.4 62.5 391.7 63.1 392 64L392.8 72.6 385.6 67.1 383.2 41.4C383.3 40.7 382.3 40 381.6 39.9 380.7 40.2 379.9 40.9 380 41.9L382.1 64 373.6 56.9 372.8 47.3C372.7 46.3 371.8 45.6 370.9 46 370.2 45.9 369.4 46.5 369.4 47.5L370.2 54.1 363.8 48.9C363.3 48.5 362.3 48.5 361.5 49.1 361.3 49.5 361.2 50.3 361.4 50.9 361.4 50.9 361.6 51.2 361.7 51.5L368 56.6 361.5 57.3C360.8 57.3 360.1 58.2 360 58.9 360.1 59.2 360.1 59.2 360.1 59.2 360.5 60.1 361.3 60.5 361.9 60.3L371.5 59.4 380.2 66.4 357.8 68.6C356.9 68.9 356.4 69.5 356.5 70.5 356.5 70.5 356.6 70.8 356.6 70.8 356.8 71.4 357.3 71.9 358.4 71.8L383.8 69.5 390.7 75.1 382.1 75.9C381.2 76.3 380.4 76.9 380.7 77.8 380.4 77.9 380.6 78.2 380.6 78.2 380.8 78.8 381.6 79.2 382.3 79.3L394.1 77.9 401.1 83.9 392.7 87 382 82.1C381.2 81.7 380 82.2 379.6 83 379.5 83.7 379.9 84.6 380.4 85.1L388.5 88.6 379.8 91.8 356.8 81.3C355.9 80.9 355 81.3 354.7 82.1 354.3 82.9 354.6 83.8 355.5 84.2L375.6 93.4 365.1 97.3 356.5 93.4C355.7 93 354.8 93.3 354.4 94.1S354.4 95.9 355.2 96.2L360.9 98.9 353.4 101.7C352.5 102 352.2 102.8 352.5 103.7 352.8 104.6 353.7 105 354.6 104.7L362.1 101.9 359.5 107.9C359.4 108.3 359.2 108.8 359.3 109.1 359.4 109.4 359.9 109.8 360.3 110 361.2 110.4 362.1 110.1 362.4 109.2L366.3 100.3 376.8 96.4 367.7 116.9C367.5 117.3 367.3 117.7 367.4 118 367.5 118.3 368 118.8 368.4 118.9 369.3 119.3 370.2 119 370.5 118.2L380.9 94.8 389.6 91.6 385.8 99.5C385.6 99.9 385.8 100.5 385.9 100.8 386 101.1 386.1 101.4 386.6 101.6 387.4 102 388.6 101.5 388.7 100.8L393.8 90 402.2 86.9 400.8 95.9 391.1 102.6C390.6 103.2 390.2 104 390.4 104.6 390.5 104.9 390.5 104.9 390.8 104.8 391.2 105.7 392.3 105.9 393.1 105.3L400.1 100.3 398.7 109.4 377.5 124.1C377.1 124.6 377 125.3 377.2 125.9 377.3 126.2 377.3 126.2 377.3 126.2 378 127 378.8 127.4 379.6 126.8L397.9 113.7 395.9 124.7 388.1 130.4C387.3 131 387.2 131.7 387.5 132.3 387.5 132.3 387.6 132.6 387.6 132.6 388.2 133.4 389.2 133.4 389.8 133.2L395.1 129.1 393.7 137.2C393.8 137.5 393.9 137.8 394 138.1 394.2 138.4 394.7 138.9 395.1 139.1 396.1 139 397 138.7 397 137.7L398.4 129.6 402.1 135.1C402.8 135.8 403.8 135.8 404.4 135.6 405.2 134.9 405.1 133.9 404.8 133L399.2 125.2 400.9 114.3 413.8 132.4C414.4 133.2 415.5 133.5 416 132.9 416.8 132.3 417.2 131.5 416.6 130.7Z" fill="rgba(107, 140, 191, 1)"></path><path d="M1343.9 399.2L1377 399.9 1397.4 421.3 1368.6 428.2 1340.4 410.7C1340.4 410.7 1340.1 410.6 1340.1 410.6 1339.3 410.3 1338.3 410.9 1337.7 411.5 1337 412.6 1337.4 413.9 1338.5 414.3L1363.2 429.6 1349.3 432.9 1338.3 426.3C1338.3 426.3 1337.9 426.2 1337.9 426.2 1337.2 426 1336.2 426.5 1335.5 427.2 1334.8 428.2 1335.2 429.6 1336.4 429.9L1343.8 434.6 1333.5 437C1332.6 437.1 1331.7 438.6 1331.9 439.4 1331.9 440.7 1333.5 441.2 1334.4 441L1344.7 438.6 1340 446C1339.2 447 1339.7 448.4 1340.8 448.8 1341.9 449.5 1343.2 449.1 1343.6 447.9L1350.2 436.9 1364 434 1348.7 458.6C1348 459.7 1348.4 461 1349.6 461.4 1350.6 462.1 1352 461.7 1352.3 460.5L1369.9 432.4 1398.6 425.5 1390.1 454.2 1360.8 470.1C1359.8 470.7 1359.4 471.8 1360 472.8 1360.5 473.8 1361.6 474.2 1362.6 473.6L1388.5 459.6 1384.4 473.4 1373.5 479.3C1372.5 479.9 1372.1 481 1372.7 482 1373.2 483 1374.4 483.4 1375.3 482.8L1382.8 478.8 1379.6 489.5C1378.9 490.5 1379.8 491.7 1381 492 1382.1 492.3 1383.1 491.8 1383.5 490.6L1386.4 480.7 1390.5 488.1C1391 489.1 1392.1 489.5 1393.1 488.9S1394.5 487.2 1393.9 486.3L1388 475.3 1392.1 461.5 1406.1 487.4C1406.7 488.4 1407.8 488.7 1408.8 488.2 1409.8 487.6 1410.1 486.5 1409.6 485.5L1393.7 456.1 1402.1 427.8 1422.5 449.2 1421.6 481.5C1421.7 482.8 1422.7 483.5 1423.9 483.9 1425.1 483.8 1425.8 482.8 1426.2 481.6L1426.9 452.6 1436.7 463.1 1436.2 475.9C1436.3 477.1 1437.3 477.9 1438.5 478.2 1439.7 478.2 1440.5 477.1 1440.7 476.4L1440.8 467.6 1448.1 475.2C1448.8 475.8 1450.3 476.3 1451 475.3 1451.8 474.2 1452.1 473.1 1451.1 472.3L1443.7 464.7 1452.5 464.8C1453.7 464.8 1454.5 463.8 1454.7 463 1454.5 462.1 1454 461.1 1453.2 460.9 1453.2 460.9 1452.8 460.8 1452.8 460.8L1440 460.3 1430.2 449.9 1459.2 450.6C1460.5 450.5 1461.2 449.5 1461.4 448.7 1461.3 447.8 1460.7 446.8 1460 446.6 1460 446.6 1459.6 446.5 1459.6 446.5L1426.4 445.8 1406.1 424.3 1434.8 417.5 1463 435C1464 435.7 1465.4 435.3 1465.8 434.2 1466.5 433.1 1466.1 431.7 1464.9 431.4L1440.2 416.1 1454.2 412.8 1465.1 419.4C1466.2 420.1 1467.6 419.7 1467.9 418.5 1468.6 417.5 1468.2 416.1 1467 415.8L1459.7 411.1 1470 408.7C1470.9 408.5 1471.7 407.1 1471.5 406.2 1471.4 405.4 1470.7 404.8 1470 404.5 1469.6 404.4 1469.2 404.3 1468.7 404.6L1458.4 406.9 1463.1 399.6C1463.8 398.5 1463.4 397.1 1462.2 396.8 1462.2 396.8 1461.9 396.7 1461.9 396.7 1461.1 396.5 1460.1 397 1459.5 397.7L1452.9 408.6 1439 412 1454.2 387.3C1454.9 386.3 1454.5 384.9 1453.4 384.6 1453.4 384.6 1453 384.5 1453 384.5 1452.2 384.2 1451.2 384.8 1450.6 385.4L1433.1 413.6 1404.3 420.5 1412.7 392.1 1442.1 376.2C1443.1 375.7 1443.4 374.5 1442.9 373.5 1442.3 372.5 1441.2 372.2 1440.2 372.7L1414.4 386.4 1418.5 372.6 1429.5 366.6C1430.5 366.1 1430.8 364.9 1430.3 363.9S1428.6 362.6 1427.6 363.1L1420.1 367.2 1423.1 357.2C1423.4 356.1 1422.9 355.1 1421.8 354.7 1420.6 354.4 1419.6 354.9 1419.3 356.1L1416.3 366 1412.3 358.6C1412 358.1 1411.7 357.6 1411 357.4S1409.7 357.4 1409.2 357.7C1408.2 358.2 1407.9 359.4 1408.4 360.4L1414.3 371.3 1410.2 385.1 1396.2 359.2C1395.9 358.7 1395.7 358.2 1394.9 358 1394.5 357.9 1393.6 358.1 1393.1 358.3 1392.1 358.9 1391.8 360 1392.3 361L1408.2 390.4 1399.8 418.7 1379.5 397.3 1380.2 364.1C1380 363.2 1379.5 362.2 1378.7 362 1378.7 362 1378.3 361.9 1378.3 361.9 1377.1 361.9 1376.3 362.9 1376.1 363.7L1375.4 392.7 1365.6 382.3 1366 369.5C1365.9 368.6 1365.4 367.6 1364.6 367.4 1364.6 367.4 1364.2 367.3 1364.2 367.3 1362.9 367.3 1362.2 368.3 1362 369.1L1361.9 377.8 1354.6 370.2C1354.2 370.1 1353.9 369.6 1353.5 369.5 1352.8 369.3 1351.9 369.4 1351.3 370.1 1350.5 371.1 1350.2 372.3 1351.2 373L1358.6 380.6 1349.8 380.5C1348.6 380.5 1347.8 381.6 1347.6 382.4 1347.7 383.6 1348.7 384.3 1349.5 384.6L1362.3 385 1372.1 395.5 1343.1 394.8C1341.8 394.8 1341.1 395.9 1340.9 396.6 1341.7 398.1 1342.6 399.2 1343.9 399.2Z" fill="rgba(107, 140, 191, 1)"></path><path d="M725.9 614L713.4 562.4 738.3 522.2 760.8 563.9 745.1 614.6C745.1 614.6 745.1 615.2 745.1 615.2 745.1 616.5 746.3 617.8 747.6 618.5 749.5 619.2 751.4 618 751.5 616.1L765 571.7 775.9 591.9 770.2 611.5C770.2 611.5 770.2 612.2 770.2 612.2 770.1 613.4 771.4 614.8 772.6 615.4 774.5 616.1 776.5 614.9 776.5 613L780.8 599.7 788.7 614.7C789.3 616 791.8 616.7 793.1 616.1 795 615.5 795.1 612.9 794.5 611.6L786.6 596.7 800 600.9C801.9 601.6 803.8 600.4 803.9 598.5 804.6 596.6 803.4 594.6 801.4 594.6L781.8 588.8 771.5 568.7 815.9 582.2C817.8 582.9 819.8 581.7 819.8 579.7 820.5 577.8 819.3 575.9 817.4 575.8L766.6 560.2 744.2 518.5 792.2 520 828.8 558.9C830 560.2 831.9 560.3 833.3 559 834.6 557.8 834.6 555.9 833.4 554.6L801.1 520.3 824.2 521 837.8 535.5C839.1 536.8 841 536.9 842.3 535.6 843.6 534.4 843.7 532.5 842.4 531.1L833.1 521.2 851 521.8C852.9 522.5 854.3 520.6 854.3 518.7 854.4 516.8 853.2 515.5 851.2 515.4L834.6 514.9 844.5 505.6C845.8 504.3 845.9 502.4 844.6 501.1S841.5 499.7 840.2 501L825.6 514.6 802.6 513.9 836.9 481.7C838.2 480.4 838.3 478.5 837 477.2 835.8 475.9 833.9 475.8 832.6 477L793.7 513.6 746.3 512.2 771.2 472 821.6 460.1C823.5 459.5 824.2 457.6 824.2 455.7 823.7 453.7 821.8 453 819.8 453L774.7 463.8 786.8 444.3 806.8 439.8C808.7 439.2 809.4 437.3 809.5 435.4 808.9 433.4 807 432.7 805.7 432.7L792.2 436.1 801 421.7C801.6 420.4 801.7 417.8 799.8 417.1 797.9 416.4 796 416.4 795.3 418.3L786.5 432.7 783.1 419.2C782.5 417.3 780.6 416.6 779.3 416.5 778 417.1 776.7 418.4 776.7 419.6 776.7 419.6 776.7 420.3 776.7 420.3L781.2 440.3 769.1 459.7 758.3 414.6C757.7 412.7 755.8 412 754.5 411.9 753.2 412.5 751.9 413.8 751.9 415 751.9 415 751.8 415.7 751.8 415.7L764.3 467.3 739.4 507.5 717 465.8 732.6 415.1C733.3 413.2 732.1 411.2 730.2 411.2 728.3 410.5 726.3 411.7 726.3 413.6L712.8 458 701.9 437.8 707.6 418.2C708.3 416.3 707.1 414.3 705.1 414.2 703.2 413.6 701.3 414.8 701.2 416.7L697 430 689.1 415C688.5 413.7 686 413 684.7 413.6 683.4 414.2 682.7 415.5 682.7 416.8 682.6 417.4 682.6 418 683.2 418.7L691.1 433.7 677.8 429.4C675.9 428.7 673.9 429.9 673.9 431.9 673.9 431.9 673.8 432.5 673.8 432.5 673.8 433.8 675 435.1 676.3 435.8L696 441.5 706.9 461.7 662.5 448.2C660.6 447.5 658.6 448.7 658.6 450.6 658.6 450.6 658.5 451.2 658.5 451.2 658.5 452.5 659.7 453.8 661 454.5L711.8 470.2 734.2 511.8 686.8 510.4 650.2 471.5C649 470.2 647.1 470.1 645.8 471.3 644.4 472.6 644.4 474.5 645.6 475.8L677.2 510.1 654.2 509.4 640.6 494.9C639.3 493.6 637.4 493.5 636.1 494.7S634.7 497.9 636 499.2L645.3 509.1 628.6 508.6C626.7 508.5 625.4 509.8 625.3 511.7 625.3 513.6 626.5 514.9 628.4 515L645.1 515.5 635.2 524.8C634.5 525.4 633.8 526 633.8 527.3S634.4 529.3 635 529.9C636.3 531.2 638.2 531.3 639.5 530.1L654 516.4 677 517.1 642.7 549.4C642.1 550 641.4 550.6 641.4 551.9 641.4 552.5 642 553.8 642.6 554.5 643.8 555.8 645.7 555.9 647.1 554.6L686 518 733.3 519.5 708.4 559.7 656.8 572.2C655.5 572.8 654.2 574 654.1 575.3 654.1 575.3 654.1 576 654.1 576 654.7 577.9 656.6 578.6 657.9 578.6L703 567.9 690.9 587.3 670.9 591.8C669.6 592.4 668.3 593.7 668.2 595 668.2 595 668.2 595.6 668.2 595.6 668.8 597.5 670.7 598.2 672 598.3L685.5 594.9 676.8 609.3C676.7 610 676.1 610.6 676.1 611.2 676 612.5 676.6 613.8 677.9 614.5 679.8 615.2 681.7 615.2 682.4 613.3L691.2 598.9 694.6 612.4C695.2 614.4 697.1 615.1 698.4 615.1 700.3 614.5 701 612.6 701 611.3L696.5 591.3 708.6 571.9 719.4 617C720 619 721.9 619.7 723.2 619.7 725.2 617.8 726.5 616 725.9 614Z" fill="rgba(107, 140, 191, 1)"></path><path d="M661.6 260.1L663.2 228.2 672 220.6 671.5 231.3C671.1 232.5 672.1 233.2 673.2 233.6 674.1 233.5 675.3 232.6 675.1 231.7L676.2 216.9 684.6 209.1 686.8 220.4 678.5 232.8C678.5 232.8 678.4 233.2 678.4 233.2 678.2 234 678.7 235 679.3 235.6 680.5 236 681.3 235.9 682.1 234.8L688 225.8 690.2 237.1 673 263.8C673 263.8 672.5 264.1 672.5 264.1 672.2 264.9 672.8 265.9 673.4 266.5 674.4 267.3 675.8 266.9 676.2 265.7L691.4 242.5 694.5 256.2 687.7 266.6C687.7 266.6 687.7 266.6 687.6 266.9 687.3 267.7 687.4 268.6 688.1 269.2 689.2 269.6 690.5 269.6 691.2 268.6L695.6 261.6 697.8 271.6C697.8 272.8 699 273.2 699.9 273.1 701.1 273.1 701.9 272.1 701.5 270.7L699.7 260.8 706.1 265.5C707.3 265.8 708.5 265.8 708.9 264.7 709.7 263.7 709.5 262.8 708.5 262L698.1 255.3 695.4 241.7 719 257.1C719.6 257.7 721 257.3 721.8 256.3 722 255.5 722 254.3 721 253.5L694.2 236.3 692 225.1 701.1 231C702.1 231.7 703.1 231.2 703.8 230.2 704.5 229.5 704.1 228.2 703.4 227.5L690.9 219.6 688.3 208.2 699.3 211.9 706 225C706.5 226 707.6 226.4 708.6 225.9 709.5 225.7 710 224.2 709.5 223.2L704.6 213.6 715.7 217.2 729.8 245.9C730.3 246.9 731.5 247.3 732.5 246.7 733.5 246.2 733.9 245.1 733.4 244.1L721 219 733.9 223.2 739.5 234.3C740 235.3 741.2 235.7 742.2 235.2 743.2 234.7 743.6 233.5 743.1 232.5L739.6 225.1 749.1 228.2C750.2 228.6 751.3 228.1 751.6 226.9 752 225.8 751.5 224.8 750.4 224.4L740.9 221.3 747.9 217.7C748.9 217.2 749.3 216.1 748.8 215S747.1 213.7 746.1 214.2L735.5 219.5 722.2 215.2 747 202.7C748 202.2 748.3 201 747.8 200 747.3 199 746.2 198.6 745.2 199.1L716.9 213.4 705.9 209.8 715.5 205C716.5 204.4 716.9 203.3 716.4 202.3 715.8 201.3 714.7 200.9 713.7 201.4L700.6 208.1 689.9 204.6 698.2 197.2 713.2 197.9C714.1 197.8 715.2 196.9 715.1 196 715.1 194.7 714.4 194.1 713.3 193.7L702.5 193.1 710.8 185.8 742.7 187.4C744 187.4 744.6 186.7 745 185.6 745 184.3 744 183.6 743.2 183.3L715.1 181.7 725.7 172.5 737.7 173.1C738.9 173.5 739.6 172.5 740 171.3 739.9 170.4 739 169.3 737.7 169.3L729.9 168.8 737.2 162C738.2 161.5 738.2 160.2 737.3 159.1 736.6 158.4 735.4 158.4 734.7 159.1L727.1 165.8 727.7 157.6C727.6 156.3 726.6 155.6 725.7 155.7 724.6 155.3 724 156 723.7 156.7 723.6 157.1 723.6 157.1 723.5 157.5L722.9 169.5 712.3 178.7 713.8 151C714.2 149.8 713.2 149.1 712.1 148.7 711.2 148.8 710.5 149.4 710.3 150.2 710.2 150.6 710.2 150.6 710.2 150.6L708 182.7 699.7 190.1 700.3 179.3C700.3 178.1 699.7 177.5 698.5 177.1 697.6 177.2 696.6 177.7 696.4 178.5 696.3 178.9 696.3 178.9 696.1 179.2L695.4 194.2 687.1 201.5 684.8 190.7 692.7 178.1C693.5 177.1 693.1 175.7 692.4 175.1 691.3 174.7 690 174.7 689.7 175.9L683.8 184.9 681.1 173.9 698.8 146.8C699.4 146.2 699 144.8 698.4 144.2 697.2 143.8 696 143.8 695.2 144.8L680 168.1 677.3 154.5 684 144.5C684.7 143.5 684.3 142.1 683.2 141.7 682.5 141.1 681.3 141.1 680.5 142.1L676.1 149.1 673.9 139.1C673.8 138.2 672.8 137.5 671.5 137.5 671 137.7 670.4 138.4 670.1 139.1 670.1 139.1 670 139.5 669.9 139.9L672.1 149.9 665.1 145.5C664.5 144.9 663.1 145.2 662.5 145.9 662.3 146.3 662.3 146.3 662.3 146.3 662 147.4 662.5 148.4 663.2 148.7L673.3 155.3 676.4 169 652.8 153.6C651.6 153.3 650.7 153.4 650 154.4 650 154.4 649.8 154.8 649.8 154.8 649.6 155.6 649.7 156.4 650.7 157.2L677.4 174.8 679.7 185.6 670.7 179.7C669.6 179.4 668.3 179.4 667.9 180.5 667.6 180.4 667.4 180.8 667.4 180.8 667.2 181.5 667.7 182.5 668.3 183.2L680.9 191.1 683.1 202.3 672.4 198.8 665.8 185.7C665.3 184.7 663.8 184.2 662.8 184.7 662.1 185.3 661.8 186.5 661.9 187.4L667.1 197.1 656.1 193.5 641.8 165.2C641.3 164.2 640.2 163.8 639.1 164.3 638.1 164.8 637.8 166 638.3 167L650.8 191.7 637.5 187.4 632.1 176.8C631.6 175.7 630.5 175.4 629.5 175.9S628.1 177.5 628.6 178.5L632.2 185.6 622.7 182.5C621.5 182.1 620.5 182.6 620.1 183.8 619.8 184.9 620.3 185.9 621.4 186.3L630.9 189.4 623.7 193.4C623.2 193.6 622.7 193.9 622.6 194.3 622.5 194.6 622.6 195.5 622.8 196 623.4 197 624.5 197.4 625.5 196.9L636.2 191.2 649.5 195.5 624.7 208.4C624.2 208.7 623.7 208.9 623.5 209.3 623.4 209.7 623.5 210.6 623.8 211.1 624.3 212.1 625.5 212.5 626.5 211.9L654.9 197.3 665.9 200.9 655.9 205.6C655.4 205.9 655.1 206.6 655 207 654.9 207.4 654.8 207.8 655 208.3 655.5 209.3 657.1 209.8 657.7 209.1L671.2 202.6 681.8 206.1 673.4 213.9 658.6 212.8C657.7 212.9 656.7 213.5 656.4 214.2 656.3 214.6 656.3 214.6 656.7 214.7 656.3 215.9 657.2 217 658.5 217L669.2 217.6 660.8 225.3 628.7 223.2C627.8 223.3 627.1 224 626.9 224.7 626.8 225.1 626.8 225.1 626.8 225.1 626.8 226.4 627.3 227.4 628.6 227.4L656.6 229 646.1 238.2 634 237.6C632.8 237.6 632.1 238.2 631.9 239 631.9 239 631.8 239.4 631.8 239.4 631.8 240.6 632.8 241.4 633.6 241.6L641.9 241.9 634.2 248.6C634.1 249 634 249.4 633.8 249.7 633.7 250.1 633.9 251 634.1 251.5 635.1 252.3 636.3 252.6 637 251.6L644.7 244.9 644.1 253.1C644.1 254.4 645.1 255.1 645.9 255.4 647.2 255.4 647.9 254.3 648.3 253.2L648.9 241.2 659.1 231.9 657.5 259.6C657.6 260.9 658.4 262 659.3 261.9 660.6 261.9 661.6 261.4 661.6 260.1Z" fill="rgba(107, 140, 191, 1)"></path><path d="M224 158.8L196 143.5 192.9 132.2 202.4 137.4C203.2 138.2 204.3 137.6 205.2 136.8 205.4 135.9 205.1 134.5 204.3 134.2L191.4 126.9 188.1 115.9 199.2 118.8 206.8 131.6C206.8 131.6 207.1 131.9 207.1 131.9 207.6 132.5 208.8 132.5 209.6 132.2 210.4 131.3 210.7 130.4 210.1 129.3L204.6 120.1 215.7 123 232.3 150.1C232.3 150.1 232.3 150.7 232.3 150.7 232.9 151.2 234 151.2 234.9 150.9 236 150.3 236.2 148.9 235.4 148.1L221.1 124.3 234.7 127.4 241.1 138.1C241.1 138.1 241.1 138.1 241.4 138.3 242 138.9 242.8 139.2 243.7 138.9 244.5 138 245.1 136.9 244.5 135.7L240.1 128.7 250 131.1C251.2 131.6 252 130.8 252.3 129.9 252.8 128.8 252.2 127.7 250.8 127.4L241.1 124.8 248.1 121C249 120.1 249.5 118.9 248.7 118.1 248.1 117 247.2 116.7 246.1 117.3L235.5 123.7 222.1 120.3 246.2 105.7C247 105.4 247.3 104 246.7 102.9 246.1 102.3 245 101.8 243.8 102.4L216.7 119 205.6 116.1 214.8 110.6C216 110 215.9 108.8 215.4 107.7 215.1 106.9 213.6 106.6 212.8 106.9L200.2 114.8 188.9 112.2 196.9 103.8 211.6 103.6C212.7 103.5 213.6 102.7 213.5 101.5 213.8 100.7 212.7 99.6 211.5 99.6L200.8 99.8 208.8 91.4 240.8 91.1C241.9 91.1 242.7 90.2 242.7 89.1 242.7 88 241.8 87.1 240.7 87.1L212.7 87.4 222.1 77.6 234.6 77.4C235.7 77.3 236.5 76.5 236.5 75.3 236.5 74.2 235.6 73.4 234.5 73.4L226.3 73.3 233.2 66.1C234.1 65.2 234 64.1 233.2 63.2 232.3 62.4 231.2 62.4 230.3 63.3L223.4 70.5 223.3 62.6C223.2 61.5 222.4 60.6 221.2 60.6S219.3 61.5 219.3 62.7L219.5 74.5 209.8 84.6 209.3 56.9C209.3 55.8 208.4 55 207.3 55 206.1 55 205.3 55.9 205.3 57L205.9 88.7 197.9 97 197.7 86.3C197.7 85.1 196.8 84.3 195.7 84.3 194.5 84.4 193.7 85.2 193.7 86.4L194 101.1 186.2 109.1 183.2 98.4 190.3 85.3C190.6 84.4 190.3 83 189.4 82.8 188.3 82.2 187.4 82.5 186.6 83.4L181.4 92.8 178.4 82.1 193.7 54.1C194.2 53 193.9 52.1 193.1 51.3 191.9 50.7 190.8 51.3 190.2 51.9L176.6 76.5 172.9 63 178.7 52.4C179.5 51.5 178.9 50.4 178 49.6 177.2 49.3 175.8 49.6 175.2 50.8L171.4 57.6 168.4 48.1C168.4 47 167.2 46.4 165.8 46.7 165 47 164.4 48.2 164.7 49L167.5 58.9 160.3 54.7C159.2 54.2 158 54.8 157.8 55.6 156.9 56.5 157.2 57.4 157.8 57.9 158.1 58.2 158.1 58.2 158.4 58.5L169 64.2 172.6 77.7 148.3 64.3C147.5 63.5 146.3 64.1 145.5 64.9 145.2 65.8 145.5 66.6 146.1 67.2 146.4 67.5 146.4 67.5 146.4 67.5L174.4 83.3 177.5 94 168 88.8C166.9 88.3 166.1 88.6 165.2 89.4 165 90.3 165 91.4 165.6 92 165.8 92.3 165.8 92.3 166.1 92.5L179.3 99.6 182.3 110.3 171.5 107.7 163.6 95.1C163 94 161.6 93.8 160.8 94.1 160 94.9 159.4 96.1 160.3 96.9L165.8 106.1 154.7 103.8 138.1 76.1C137.8 75.3 136.4 75 135.5 75.3 134.7 76.2 134.2 77.3 134.7 78.4L149.1 102.2 135.7 98.8 129.6 88.4C129 87.3 127.5 87.1 126.7 87.9 125.9 88.2 125.3 89.4 125.9 90.5L130.3 97.5 120.3 95.1C119.5 94.9 118.4 95.4 117.8 96.6 117.8 97.1 118.1 98 118.7 98.5 118.7 98.5 119 98.8 119.3 99.1L129.2 101.5 122.3 105.8C121.4 106.1 121.2 107.5 121.5 108.4 121.7 108.7 121.7 108.7 121.7 108.7 122.6 109.5 123.7 109.5 124.3 108.9L134.6 102.8 148.3 105.9 124.2 120.5C123.4 121.4 123.1 122.2 123.7 123.3 123.7 123.3 124 123.6 124 123.6 124.6 124.2 125.4 124.4 126.6 123.9L154 107.5 164.8 110.1 155.5 115.7C154.7 116.5 154.2 117.7 155 118.5 154.8 118.8 155 119.1 155 119.1 155.6 119.6 156.7 119.6 157.6 119.3L170.2 111.4 181.3 114.3 173.5 122.4 158.8 122.7C157.7 122.7 156.5 123.8 156.6 125 156.9 125.8 157.7 126.7 158.6 126.9L169.6 126.4 161.6 134.8 129.9 135.4C128.8 135.4 127.9 136.3 128 137.4 128 138.5 128.8 139.4 130 139.3L157.7 138.8 148 148.9 136.1 149.1C135 149.2 134.1 150 134.2 151.1S135 153.1 136.2 153.1L144.1 152.9 137.2 160.1C136.3 161 136.3 162.1 137.2 163 138.1 163.8 139.2 163.8 140 162.9L147 155.7 147.4 163.9C147.4 164.5 147.4 165 147.7 165.3 148 165.6 148.9 165.9 149.4 165.8 150.6 165.8 151.4 165 151.4 163.8L150.9 151.7 160.6 141.6 161.4 169.6C161.4 170.1 161.4 170.7 161.7 171 162 171.3 162.8 171.5 163.4 171.5 164.5 171.5 165.4 170.6 165.3 169.5L164.4 137.6 172.5 129.2 172.4 140.2C172.4 140.8 173 141.4 173.3 141.6 173.6 141.9 173.9 142.2 174.4 142.2 175.6 142.1 176.7 141 176.4 140.2L176.4 125.2 184.1 117.1 187.5 128.1 180.1 140.9C179.8 141.8 179.8 142.9 180.4 143.5 180.7 143.7 180.7 143.7 181 143.5 181.8 144.3 183.2 144 183.8 142.8L189 133.4 192.3 144.4 176.4 172.4C176.2 173.3 176.5 174.1 177 174.7 177.3 174.9 177.3 174.9 177.3 174.9 178.5 175.5 179.6 175.5 180.1 174.3L193.8 149.7 197.5 163.2 191.7 173.8C191.2 174.9 191.5 175.8 192.1 176.3 192.1 176.3 192.4 176.6 192.4 176.6 193.5 177.2 194.6 176.6 195.2 176L199 168.6 201.7 178.4C202 178.7 202.3 179 202.6 179.3 202.9 179.5 203.7 179.8 204.3 179.8 205.4 179.2 206.2 178.3 205.7 177.2L202.9 167.4 210.1 171.5C211.2 172 212.3 171.4 212.9 170.9 213.4 169.7 212.9 168.6 212 167.8L201.4 162 197.5 148.8 221.8 162.2C222.9 162.7 224.3 162.4 224.6 161.6 225.1 160.4 225.1 159.3 224 158.8Z" fill="rgba(107, 140, 191, 1)"></path></g><defs><mask id="SvgjsMask1012"><rect width="1440" height="560" fill="#ffffff"></rect></mask><filter id="SvgjsFilter1013"><feGaussianBlur stdDeviation="1"></feGaussianBlur></filter></defs></svg>